<svg width="32" height="32" viewBox="0 0 32 32" fill="none" xmlns="http://www.w3.org/2000/svg">
<g clip-path="url(#clip0)">
<rect width="32" height="32" rx="10" fill="url(#paint0_linear)"/>
<g filter="url(#filter0_d)">
<path d="M16 8C11.03 8 7 11.3587 7 15.4971C7.03694 16.7249 7.39056 17.9223 8.02657 18.9731C8.66258 20.024 9.55939 20.8926 10.63 21.4948C10.4137 22.0826 10.1129 22.6358 9.73714 23.1369C9.63591 23.2847 9.58282 23.4601 9.58511 23.6392C9.58741 23.8184 9.64498 23.9924 9.74996 24.1376C9.85494 24.2827 10.0022 24.3919 10.1716 24.4501C10.341 24.5084 10.5242 24.5129 10.6963 24.4631C11.8986 24.113 13.0303 23.555 14.04 22.8143C14.6863 22.9354 15.3425 22.9956 16 22.9942C20.97 22.9942 25 19.6355 25 15.4971C25 11.3587 20.97 8 16 8Z" stroke="white" stroke-width="1.5" stroke-linecap="round" stroke-linejoin="round"/>
<path d="M13 14H19" stroke="white" stroke-width="1.5" stroke-linecap="round" stroke-linejoin="round"/>
<path d="M13 17H16" stroke="white" stroke-width="1.5" stroke-linecap="round" stroke-linejoin="round"/>
</g>
</g>
<defs>
<filter id="filter0_d" x="-2" y="2" width="36" height="36" filterUnits="userSpaceOnUse" color-interpolation-filters="sRGB">
<feFlood flood-opacity="0" result="BackgroundImageFix"/>
<feColorMatrix in="SourceAlpha" type="matrix" values="0 0 0 0 0 0 0 0 0 0 0 0 0 0 0 0 0 0 127 0" result="hardAlpha"/>
<feOffset dy="4"/>
<feGaussianBlur stdDeviation="3"/>
<feColorMatrix type="matrix" values="0 0 0 0 0 0 0 0 0 0 0 0 0 0 0 0 0 0 0.1 0"/>
<feBlend mode="normal" in2="BackgroundImageFix" result="effect1_dropShadow"/>
<feBlend mode="normal" in="SourceGraphic" in2="effect1_dropShadow" result="shape"/>
</filter>
<linearGradient id="paint0_linear" x1="0" y1="0" x2="29.2" y2="32" gradientUnits="userSpaceOnUse">
<stop stop-color="#A855F7"/>
<stop offset="1" stop-color="#6366F1"/>
</linearGradient>
<clipPath id="clip0">
<rect width="32" height="32" rx="10" fill="white"/>
</clipPath>
</defs>
</svg>
