<svg width="32" height="32" viewBox="0 0 32 32" fill="none" xmlns="http://www.w3.org/2000/svg">
<g clip-path="url(#clip0)">
<rect width="32" height="32" rx="10" fill="url(#paint0_linear)"/>
<g filter="url(#filter0_dd)">
<path d="M21 6.00004V6.00004C23.7614 6.00004 26 8.23862 26 11C26 13.7615 23.7614 16 21 16C18.2386 16 16 13.7615 16 11V11C16 8.23862 18.2386 6.00004 21 6.00004" stroke="white" stroke-width="1.5" stroke-linecap="round" stroke-linejoin="round"/>
<path d="M24 18V18.375V18.375C24 19.9396 22.7316 21.208 21.167 21.208H16.445L11.723 24.986V21.208H9.833H9.833C8.26838 21.208 7 19.9396 7 18.375V10.819V10.819C7 9.25438 8.26838 7.986 9.833 7.986H14" stroke="white" stroke-width="1.5" stroke-linecap="round" stroke-linejoin="round"/>
<path d="M22.358 10.944V10.944C22.3283 10.9418 22.3023 10.9641 22.3001 10.9938C22.3 10.9959 22.2999 10.998 22.3 11V11C22.3 11.031 22.3251 11.056 22.356 11.056C22.3869 11.056 22.412 11.031 22.412 11C22.412 10.9691 22.3869 10.944 22.356 10.944C22.3557 10.944 22.3553 10.944 22.355 10.944" stroke="white" stroke-width="1.5" stroke-linecap="round" stroke-linejoin="round"/>
<path d="M19.642 10.944V10.944C19.6111 10.9451 19.587 10.9711 19.5881 11.002C19.5892 11.0329 19.6151 11.057 19.646 11.0559C19.6762 11.0549 19.7 11.0301 19.7 11V11C19.7 10.9695 19.6756 10.9445 19.645 10.944" stroke="white" stroke-width="1.5" stroke-linecap="round" stroke-linejoin="round"/>
</g>
</g>
<defs>
<filter id="filter0_dd" x="-2" y="2" width="36" height="36" filterUnits="userSpaceOnUse" color-interpolation-filters="sRGB">
<feFlood flood-opacity="0" result="BackgroundImageFix"/>
<feColorMatrix in="SourceAlpha" type="matrix" values="0 0 0 0 0 0 0 0 0 0 0 0 0 0 0 0 0 0 127 0" result="hardAlpha"/>
<feOffset dy="4"/>
<feGaussianBlur stdDeviation="3"/>
<feColorMatrix type="matrix" values="0 0 0 0 0 0 0 0 0 0 0 0 0 0 0 0 0 0 0.1 0"/>
<feBlend mode="normal" in2="BackgroundImageFix" result="effect1_dropShadow"/>
<feColorMatrix in="SourceAlpha" type="matrix" values="0 0 0 0 0 0 0 0 0 0 0 0 0 0 0 0 0 0 127 0" result="hardAlpha"/>
<feOffset dy="4"/>
<feGaussianBlur stdDeviation="3"/>
<feColorMatrix type="matrix" values="0 0 0 0 0 0 0 0 0 0 0 0 0 0 0 0 0 0 0.1 0"/>
<feBlend mode="normal" in2="effect1_dropShadow" result="effect2_dropShadow"/>
<feBlend mode="normal" in="SourceGraphic" in2="effect2_dropShadow" result="shape"/>
</filter>
<linearGradient id="paint0_linear" x1="0" y1="0" x2="32.0708" y2="0.0711348" gradientUnits="userSpaceOnUse">
<stop stop-color="#EC4899"/>
<stop offset="1" stop-color="#F43F5E"/>
</linearGradient>
<clipPath id="clip0">
<rect width="32" height="32" rx="10" fill="white"/>
</clipPath>
</defs>
</svg>
