<svg width="259" height="299" viewBox="0 0 259 299" fill="none" xmlns="http://www.w3.org/2000/svg">
<g clip-path="url(#clip0)">
<path d="M-145 0H-141V4H-145V0Z" fill="#4B5563"/>
<path d="M-125 0H-121V4H-125V0Z" fill="#4B5563"/>
<path d="M-105 0H-101V4H-105V0Z" fill="#4B5563"/>
<path d="M-85 0H-81V4H-85V0Z" fill="#4B5563"/>
<path d="M-65 0H-61V4H-65V0Z" fill="#4B5563"/>
<path d="M-45 0H-41V4H-45V0Z" fill="#4B5563"/>
<path d="M-25 0H-21V4H-25V0Z" fill="#4B5563"/>
<path d="M-5 0H-1V4H-5V0Z" fill="#4B5563"/>
<path d="M15 0H19V4H15V0Z" fill="#4B5563"/>
<path d="M35 0H39V4H35V0Z" fill="#4B5563"/>
<path d="M55 0H59V4H55V0Z" fill="#4B5563"/>
<path d="M75 0H79V4H75V0Z" fill="#4B5563"/>
<path d="M95 0H99V4H95V0Z" fill="#4B5563"/>
<path d="M115 0H119V4H115V0Z" fill="#4B5563"/>
<path d="M135 0H139V4H135V0Z" fill="#4B5563"/>
<path d="M155 0H159V4H155V0Z" fill="#4B5563"/>
<path d="M175 0H179V4H175V0Z" fill="#4B5563"/>
<path d="M195 0H199V4H195V0Z" fill="#4B5563"/>
<path d="M215 0H219V4H215V0Z" fill="#4B5563"/>
<path d="M235 0H239V4H235V0Z" fill="#4B5563"/>
<path d="M255 0H259V4H255V0Z" fill="#4B5563"/>
<path d="M-145 20H-141V24H-145V20Z" fill="#4B5563"/>
<path d="M-125 20H-121V24H-125V20Z" fill="#4B5563"/>
<path d="M-105 20H-101V24H-105V20Z" fill="#4B5563"/>
<path d="M-85 20H-81V24H-85V20Z" fill="#4B5563"/>
<path d="M-65 20H-61V24H-65V20Z" fill="#4B5563"/>
<path d="M-45 20H-41V24H-45V20Z" fill="#4B5563"/>
<path d="M-25 20H-21V24H-25V20Z" fill="#4B5563"/>
<path d="M-5 20H-1V24H-5V20Z" fill="#4B5563"/>
<path d="M15 20H19V24H15V20Z" fill="#4B5563"/>
<path d="M35 20H39V24H35V20Z" fill="#4B5563"/>
<path d="M55 20H59V24H55V20Z" fill="#4B5563"/>
<path d="M75 20H79V24H75V20Z" fill="#4B5563"/>
<path d="M95 20H99V24H95V20Z" fill="#4B5563"/>
<path d="M115 20H119V24H115V20Z" fill="#4B5563"/>
<path d="M135 20H139V24H135V20Z" fill="#4B5563"/>
<path d="M155 20H159V24H155V20Z" fill="#4B5563"/>
<path d="M175 20H179V24H175V20Z" fill="#4B5563"/>
<path d="M195 20H199V24H195V20Z" fill="#4B5563"/>
<path d="M215 20H219V24H215V20Z" fill="#4B5563"/>
<path d="M235 20H239V24H235V20Z" fill="#4B5563"/>
<path d="M255 20H259V24H255V20Z" fill="#4B5563"/>
<path d="M-145 40H-141V44H-145V40Z" fill="#4B5563"/>
<path d="M-125 40H-121V44H-125V40Z" fill="#4B5563"/>
<path d="M-105 40H-101V44H-105V40Z" fill="#4B5563"/>
<path d="M-85 40H-81V44H-85V40Z" fill="#4B5563"/>
<path d="M-65 40H-61V44H-65V40Z" fill="#4B5563"/>
<path d="M-45 40H-41V44H-45V40Z" fill="#4B5563"/>
<path d="M-25 40H-21V44H-25V40Z" fill="#4B5563"/>
<path d="M-5 40H-1V44H-5V40Z" fill="#4B5563"/>
<path d="M15 40H19V44H15V40Z" fill="#4B5563"/>
<path d="M35 40H39V44H35V40Z" fill="#4B5563"/>
<path d="M55 40H59V44H55V40Z" fill="#4B5563"/>
<path d="M75 40H79V44H75V40Z" fill="#4B5563"/>
<path d="M95 40H99V44H95V40Z" fill="#4B5563"/>
<path d="M115 40H119V44H115V40Z" fill="#4B5563"/>
<path d="M135 40H139V44H135V40Z" fill="#4B5563"/>
<path d="M155 40H159V44H155V40Z" fill="#4B5563"/>
<path d="M175 40H179V44H175V40Z" fill="#4B5563"/>
<path d="M195 40H199V44H195V40Z" fill="#4B5563"/>
<path d="M215 40H219V44H215V40Z" fill="#4B5563"/>
<path d="M235 40H239V44H235V40Z" fill="#4B5563"/>
<path d="M255 40H259V44H255V40Z" fill="#4B5563"/>
<path d="M-145 60H-141V64H-145V60Z" fill="#4B5563"/>
<path d="M-125 60H-121V64H-125V60Z" fill="#4B5563"/>
<path d="M-105 60H-101V64H-105V60Z" fill="#4B5563"/>
<path d="M-85 60H-81V64H-85V60Z" fill="#4B5563"/>
<path d="M-65 60H-61V64H-65V60Z" fill="#4B5563"/>
<path d="M-45 60H-41V64H-45V60Z" fill="#4B5563"/>
<path d="M-25 60H-21V64H-25V60Z" fill="#4B5563"/>
<path d="M-5 60H-1V64H-5V60Z" fill="#4B5563"/>
<path d="M15 60H19V64H15V60Z" fill="#4B5563"/>
<path d="M35 60H39V64H35V60Z" fill="#4B5563"/>
<path d="M55 60H59V64H55V60Z" fill="#4B5563"/>
<path d="M75 60H79V64H75V60Z" fill="#4B5563"/>
<path d="M95 60H99V64H95V60Z" fill="#4B5563"/>
<path d="M115 60H119V64H115V60Z" fill="#4B5563"/>
<path d="M135 60H139V64H135V60Z" fill="#4B5563"/>
<path d="M155 60H159V64H155V60Z" fill="#4B5563"/>
<path d="M175 60H179V64H175V60Z" fill="#4B5563"/>
<path d="M195 60H199V64H195V60Z" fill="#4B5563"/>
<path d="M215 60H219V64H215V60Z" fill="#4B5563"/>
<path d="M235 60H239V64H235V60Z" fill="#4B5563"/>
<path d="M255 60H259V64H255V60Z" fill="#4B5563"/>
<path d="M-145 80H-141V84H-145V80Z" fill="#4B5563"/>
<path d="M-125 80H-121V84H-125V80Z" fill="#4B5563"/>
<path d="M-105 80H-101V84H-105V80Z" fill="#4B5563"/>
<path d="M-85 80H-81V84H-85V80Z" fill="#4B5563"/>
<path d="M-65 80H-61V84H-65V80Z" fill="#4B5563"/>
<path d="M-45 80H-41V84H-45V80Z" fill="#4B5563"/>
<path d="M-25 80H-21V84H-25V80Z" fill="#4B5563"/>
<path d="M-5 80H-1V84H-5V80Z" fill="#4B5563"/>
<path d="M15 80H19V84H15V80Z" fill="#4B5563"/>
<path d="M35 80H39V84H35V80Z" fill="#4B5563"/>
<path d="M55 80H59V84H55V80Z" fill="#4B5563"/>
<path d="M75 80H79V84H75V80Z" fill="#4B5563"/>
<path d="M95 80H99V84H95V80Z" fill="#4B5563"/>
<path d="M115 80H119V84H115V80Z" fill="#4B5563"/>
<path d="M135 80H139V84H135V80Z" fill="#4B5563"/>
<path d="M155 80H159V84H155V80Z" fill="#4B5563"/>
<path d="M175 80H179V84H175V80Z" fill="#4B5563"/>
<path d="M195 80H199V84H195V80Z" fill="#4B5563"/>
<path d="M215 80H219V84H215V80Z" fill="#4B5563"/>
<path d="M235 80H239V84H235V80Z" fill="#4B5563"/>
<path d="M255 80H259V84H255V80Z" fill="#4B5563"/>
<path d="M-145 100H-141V104H-145V100Z" fill="#4B5563"/>
<path d="M-125 100H-121V104H-125V100Z" fill="#4B5563"/>
<path d="M-105 100H-101V104H-105V100Z" fill="#4B5563"/>
<path d="M-85 100H-81V104H-85V100Z" fill="#4B5563"/>
<path d="M-65 100H-61V104H-65V100Z" fill="#4B5563"/>
<path d="M-45 100H-41V104H-45V100Z" fill="#4B5563"/>
<path d="M-25 100H-21V104H-25V100Z" fill="#4B5563"/>
<path d="M-5 100H-1V104H-5V100Z" fill="#4B5563"/>
<path d="M15 100H19V104H15V100Z" fill="#4B5563"/>
<path d="M35 100H39V104H35V100Z" fill="#4B5563"/>
<path d="M55 100H59V104H55V100Z" fill="#4B5563"/>
<path d="M75 100H79V104H75V100Z" fill="#4B5563"/>
<path d="M95 100H99V104H95V100Z" fill="#4B5563"/>
<path d="M115 100H119V104H115V100Z" fill="#4B5563"/>
<path d="M135 100H139V104H135V100Z" fill="#4B5563"/>
<path d="M155 100H159V104H155V100Z" fill="#4B5563"/>
<path d="M175 100H179V104H175V100Z" fill="#4B5563"/>
<path d="M195 100H199V104H195V100Z" fill="#4B5563"/>
<path d="M215 100H219V104H215V100Z" fill="#4B5563"/>
<path d="M235 100H239V104H235V100Z" fill="#4B5563"/>
<path d="M255 100H259V104H255V100Z" fill="#4B5563"/>
<path d="M-145 120H-141V124H-145V120Z" fill="#4B5563"/>
<path d="M-125 120H-121V124H-125V120Z" fill="#4B5563"/>
<path d="M-105 120H-101V124H-105V120Z" fill="#4B5563"/>
<path d="M-85 120H-81V124H-85V120Z" fill="#4B5563"/>
<path d="M-65 120H-61V124H-65V120Z" fill="#4B5563"/>
<path d="M-45 120H-41V124H-45V120Z" fill="#4B5563"/>
<path d="M-25 120H-21V124H-25V120Z" fill="#4B5563"/>
<path d="M-5 120H-1V124H-5V120Z" fill="#4B5563"/>
<path d="M15 120H19V124H15V120Z" fill="#4B5563"/>
<path d="M35 120H39V124H35V120Z" fill="#4B5563"/>
<path d="M55 120H59V124H55V120Z" fill="#4B5563"/>
<path d="M75 120H79V124H75V120Z" fill="#4B5563"/>
<path d="M95 120H99V124H95V120Z" fill="#4B5563"/>
<path d="M115 120H119V124H115V120Z" fill="#4B5563"/>
<path d="M135 120H139V124H135V120Z" fill="#4B5563"/>
<path d="M155 120H159V124H155V120Z" fill="#4B5563"/>
<path d="M175 120H179V124H175V120Z" fill="#4B5563"/>
<path d="M195 120H199V124H195V120Z" fill="#4B5563"/>
<path d="M215 120H219V124H215V120Z" fill="#4B5563"/>
<path d="M235 120H239V124H235V120Z" fill="#4B5563"/>
<path d="M255 120H259V124H255V120Z" fill="#4B5563"/>
<path d="M-145 140H-141V144H-145V140Z" fill="#4B5563"/>
<path d="M-125 140H-121V144H-125V140Z" fill="#4B5563"/>
<path d="M-105 140H-101V144H-105V140Z" fill="#4B5563"/>
<path d="M-85 140H-81V144H-85V140Z" fill="#4B5563"/>
<path d="M-65 140H-61V144H-65V140Z" fill="#4B5563"/>
<path d="M-45 140H-41V144H-45V140Z" fill="#4B5563"/>
<path d="M-25 140H-21V144H-25V140Z" fill="#4B5563"/>
<path d="M-5 140H-1V144H-5V140Z" fill="#4B5563"/>
<path d="M15 140H19V144H15V140Z" fill="#4B5563"/>
<path d="M35 140H39V144H35V140Z" fill="#4B5563"/>
<path d="M55 140H59V144H55V140Z" fill="#4B5563"/>
<path d="M75 140H79V144H75V140Z" fill="#4B5563"/>
<path d="M95 140H99V144H95V140Z" fill="#4B5563"/>
<path d="M115 140H119V144H115V140Z" fill="#4B5563"/>
<path d="M135 140H139V144H135V140Z" fill="#4B5563"/>
<path d="M155 140H159V144H155V140Z" fill="#4B5563"/>
<path d="M175 140H179V144H175V140Z" fill="#4B5563"/>
<path d="M195 140H199V144H195V140Z" fill="#4B5563"/>
<path d="M215 140H219V144H215V140Z" fill="#4B5563"/>
<path d="M235 140H239V144H235V140Z" fill="#4B5563"/>
<path d="M255 140H259V144H255V140Z" fill="#4B5563"/>
<path d="M-145 160H-141V164H-145V160Z" fill="#4B5563"/>
<path d="M-125 160H-121V164H-125V160Z" fill="#4B5563"/>
<path d="M-105 160H-101V164H-105V160Z" fill="#4B5563"/>
<path d="M-85 160H-81V164H-85V160Z" fill="#4B5563"/>
<path d="M-65 160H-61V164H-65V160Z" fill="#4B5563"/>
<path d="M-45 160H-41V164H-45V160Z" fill="#4B5563"/>
<path d="M-25 160H-21V164H-25V160Z" fill="#4B5563"/>
<path d="M-5 160H-1V164H-5V160Z" fill="#4B5563"/>
<path d="M15 160H19V164H15V160Z" fill="#4B5563"/>
<path d="M35 160H39V164H35V160Z" fill="#4B5563"/>
<path d="M55 160H59V164H55V160Z" fill="#4B5563"/>
<path d="M75 160H79V164H75V160Z" fill="#4B5563"/>
<path d="M95 160H99V164H95V160Z" fill="#4B5563"/>
<path d="M115 160H119V164H115V160Z" fill="#4B5563"/>
<path d="M135 160H139V164H135V160Z" fill="#4B5563"/>
<path d="M155 160H159V164H155V160Z" fill="#4B5563"/>
<path d="M175 160H179V164H175V160Z" fill="#4B5563"/>
<path d="M195 160H199V164H195V160Z" fill="#4B5563"/>
<path d="M215 160H219V164H215V160Z" fill="#4B5563"/>
<path d="M235 160H239V164H235V160Z" fill="#4B5563"/>
<path d="M255 160H259V164H255V160Z" fill="#4B5563"/>
<path d="M-145 180H-141V184H-145V180Z" fill="#4B5563"/>
<path d="M-125 180H-121V184H-125V180Z" fill="#4B5563"/>
<path d="M-105 180H-101V184H-105V180Z" fill="#4B5563"/>
<path d="M-85 180H-81V184H-85V180Z" fill="#4B5563"/>
<path d="M-65 180H-61V184H-65V180Z" fill="#4B5563"/>
<path d="M-45 180H-41V184H-45V180Z" fill="#4B5563"/>
<path d="M-25 180H-21V184H-25V180Z" fill="#4B5563"/>
<path d="M-5 180H-1V184H-5V180Z" fill="#4B5563"/>
<path d="M15 180H19V184H15V180Z" fill="#4B5563"/>
<path d="M35 180H39V184H35V180Z" fill="#4B5563"/>
<path d="M55 180H59V184H55V180Z" fill="#4B5563"/>
<path d="M75 180H79V184H75V180Z" fill="#4B5563"/>
<path d="M95 180H99V184H95V180Z" fill="#4B5563"/>
<path d="M115 180H119V184H115V180Z" fill="#4B5563"/>
<path d="M135 180H139V184H135V180Z" fill="#4B5563"/>
<path d="M155 180H159V184H155V180Z" fill="#4B5563"/>
<path d="M175 180H179V184H175V180Z" fill="#4B5563"/>
<path d="M195 180H199V184H195V180Z" fill="#4B5563"/>
<path d="M215 180H219V184H215V180Z" fill="#4B5563"/>
<path d="M235 180H239V184H235V180Z" fill="#4B5563"/>
<path d="M255 180H259V184H255V180Z" fill="#4B5563"/>
<path d="M-145 200H-141V204H-145V200Z" fill="#4B5563"/>
<path d="M-125 200H-121V204H-125V200Z" fill="#4B5563"/>
<path d="M-105 200H-101V204H-105V200Z" fill="#4B5563"/>
<path d="M-85 200H-81V204H-85V200Z" fill="#4B5563"/>
<path d="M-65 200H-61V204H-65V200Z" fill="#4B5563"/>
<path d="M-45 200H-41V204H-45V200Z" fill="#4B5563"/>
<path d="M-25 200H-21V204H-25V200Z" fill="#4B5563"/>
<path d="M-5 200H-1V204H-5V200Z" fill="#4B5563"/>
<path d="M15 200H19V204H15V200Z" fill="#4B5563"/>
<path d="M35 200H39V204H35V200Z" fill="#4B5563"/>
<path d="M55 200H59V204H55V200Z" fill="#4B5563"/>
<path d="M75 200H79V204H75V200Z" fill="#4B5563"/>
<path d="M95 200H99V204H95V200Z" fill="#4B5563"/>
<path d="M115 200H119V204H115V200Z" fill="#4B5563"/>
<path d="M135 200H139V204H135V200Z" fill="#4B5563"/>
<path d="M155 200H159V204H155V200Z" fill="#4B5563"/>
<path d="M175 200H179V204H175V200Z" fill="#4B5563"/>
<path d="M195 200H199V204H195V200Z" fill="#4B5563"/>
<path d="M215 200H219V204H215V200Z" fill="#4B5563"/>
<path d="M235 200H239V204H235V200Z" fill="#4B5563"/>
<path d="M255 200H259V204H255V200Z" fill="#4B5563"/>
<path d="M-145 220H-141V224H-145V220Z" fill="#4B5563"/>
<path d="M-125 220H-121V224H-125V220Z" fill="#4B5563"/>
<path d="M-105 220H-101V224H-105V220Z" fill="#4B5563"/>
<path d="M-85 220H-81V224H-85V220Z" fill="#4B5563"/>
<path d="M-65 220H-61V224H-65V220Z" fill="#4B5563"/>
<path d="M-45 220H-41V224H-45V220Z" fill="#4B5563"/>
<path d="M-25 220H-21V224H-25V220Z" fill="#4B5563"/>
<path d="M-5 220H-1V224H-5V220Z" fill="#4B5563"/>
<path d="M15 220H19V224H15V220Z" fill="#4B5563"/>
<path d="M35 220H39V224H35V220Z" fill="#4B5563"/>
<path d="M55 220H59V224H55V220Z" fill="#4B5563"/>
<path d="M75 220H79V224H75V220Z" fill="#4B5563"/>
<path d="M95 220H99V224H95V220Z" fill="#4B5563"/>
<path d="M115 220H119V224H115V220Z" fill="#4B5563"/>
<path d="M135 220H139V224H135V220Z" fill="#4B5563"/>
<path d="M155 220H159V224H155V220Z" fill="#4B5563"/>
<path d="M175 220H179V224H175V220Z" fill="#4B5563"/>
<path d="M195 220H199V224H195V220Z" fill="#4B5563"/>
<path d="M215 220H219V224H215V220Z" fill="#4B5563"/>
<path d="M235 220H239V224H235V220Z" fill="#4B5563"/>
<path d="M255 220H259V224H255V220Z" fill="#4B5563"/>
<path d="M-145 240H-141V244H-145V240Z" fill="#4B5563"/>
<path d="M-125 240H-121V244H-125V240Z" fill="#4B5563"/>
<path d="M-105 240H-101V244H-105V240Z" fill="#4B5563"/>
<path d="M-85 240H-81V244H-85V240Z" fill="#4B5563"/>
<path d="M-65 240H-61V244H-65V240Z" fill="#4B5563"/>
<path d="M-45 240H-41V244H-45V240Z" fill="#4B5563"/>
<path d="M-25 240H-21V244H-25V240Z" fill="#4B5563"/>
<path d="M-5 240H-1V244H-5V240Z" fill="#4B5563"/>
<path d="M15 240H19V244H15V240Z" fill="#4B5563"/>
<path d="M35 240H39V244H35V240Z" fill="#4B5563"/>
<path d="M55 240H59V244H55V240Z" fill="#4B5563"/>
<path d="M75 240H79V244H75V240Z" fill="#4B5563"/>
<path d="M95 240H99V244H95V240Z" fill="#4B5563"/>
<path d="M115 240H119V244H115V240Z" fill="#4B5563"/>
<path d="M135 240H139V244H135V240Z" fill="#4B5563"/>
<path d="M155 240H159V244H155V240Z" fill="#4B5563"/>
<path d="M175 240H179V244H175V240Z" fill="#4B5563"/>
<path d="M195 240H199V244H195V240Z" fill="#4B5563"/>
<path d="M215 240H219V244H215V240Z" fill="#4B5563"/>
<path d="M235 240H239V244H235V240Z" fill="#4B5563"/>
<path d="M255 240H259V244H255V240Z" fill="#4B5563"/>
<path d="M-145 260H-141V264H-145V260Z" fill="#4B5563"/>
<path d="M-125 260H-121V264H-125V260Z" fill="#4B5563"/>
<path d="M-105 260H-101V264H-105V260Z" fill="#4B5563"/>
<path d="M-85 260H-81V264H-85V260Z" fill="#4B5563"/>
<path d="M-65 260H-61V264H-65V260Z" fill="#4B5563"/>
<path d="M-45 260H-41V264H-45V260Z" fill="#4B5563"/>
<path d="M-25 260H-21V264H-25V260Z" fill="#4B5563"/>
<path d="M-5 260H-1V264H-5V260Z" fill="#4B5563"/>
<path d="M15 260H19V264H15V260Z" fill="#4B5563"/>
<path d="M35 260H39V264H35V260Z" fill="#4B5563"/>
<path d="M55 260H59V264H55V260Z" fill="#4B5563"/>
<path d="M75 260H79V264H75V260Z" fill="#4B5563"/>
<path d="M95 260H99V264H95V260Z" fill="#4B5563"/>
<path d="M115 260H119V264H115V260Z" fill="#4B5563"/>
<path d="M135 260H139V264H135V260Z" fill="#4B5563"/>
<path d="M155 260H159V264H155V260Z" fill="#4B5563"/>
<path d="M175 260H179V264H175V260Z" fill="#4B5563"/>
<path d="M195 260H199V264H195V260Z" fill="#4B5563"/>
<path d="M215 260H219V264H215V260Z" fill="#4B5563"/>
<path d="M235 260H239V264H235V260Z" fill="#4B5563"/>
<path d="M255 260H259V264H255V260Z" fill="#4B5563"/>
<path d="M-145 280H-141V284H-145V280Z" fill="#4B5563"/>
<path d="M-125 280H-121V284H-125V280Z" fill="#4B5563"/>
<path d="M-105 280H-101V284H-105V280Z" fill="#4B5563"/>
<path d="M-85 280H-81V284H-85V280Z" fill="#4B5563"/>
<path d="M-65 280H-61V284H-65V280Z" fill="#4B5563"/>
<path d="M-45 280H-41V284H-45V280Z" fill="#4B5563"/>
<path d="M-25 280H-21V284H-25V280Z" fill="#4B5563"/>
<path d="M-5 280H-1V284H-5V280Z" fill="#4B5563"/>
<path d="M15 280H19V284H15V280Z" fill="#4B5563"/>
<path d="M35 280H39V284H35V280Z" fill="#4B5563"/>
<path d="M55 280H59V284H55V280Z" fill="#4B5563"/>
<path d="M75 280H79V284H75V280Z" fill="#4B5563"/>
<path d="M95 280H99V284H95V280Z" fill="#4B5563"/>
<path d="M115 280H119V284H115V280Z" fill="#4B5563"/>
<path d="M135 280H139V284H135V280Z" fill="#4B5563"/>
<path d="M155 280H159V284H155V280Z" fill="#4B5563"/>
<path d="M175 280H179V284H175V280Z" fill="#4B5563"/>
<path d="M195 280H199V284H195V280Z" fill="#4B5563"/>
<path d="M215 280H219V284H215V280Z" fill="#4B5563"/>
<path d="M235 280H239V284H235V280Z" fill="#4B5563"/>
<path d="M255 280H259V284H255V280Z" fill="#4B5563"/>
<path d="M-145 300H-141V304H-145V300Z" fill="#4B5563"/>
<path d="M-125 300H-121V304H-125V300Z" fill="#4B5563"/>
<path d="M-105 300H-101V304H-105V300Z" fill="#4B5563"/>
<path d="M-85 300H-81V304H-85V300Z" fill="#4B5563"/>
<path d="M-65 300H-61V304H-65V300Z" fill="#4B5563"/>
<path d="M-45 300H-41V304H-45V300Z" fill="#4B5563"/>
<path d="M-25 300H-21V304H-25V300Z" fill="#4B5563"/>
<path d="M-5 300H-1V304H-5V300Z" fill="#4B5563"/>
<path d="M15 300H19V304H15V300Z" fill="#4B5563"/>
<path d="M35 300H39V304H35V300Z" fill="#4B5563"/>
<path d="M55 300H59V304H55V300Z" fill="#4B5563"/>
<path d="M75 300H79V304H75V300Z" fill="#4B5563"/>
<path d="M95 300H99V304H95V300Z" fill="#4B5563"/>
<path d="M115 300H119V304H115V300Z" fill="#4B5563"/>
<path d="M135 300H139V304H135V300Z" fill="#4B5563"/>
<path d="M155 300H159V304H155V300Z" fill="#4B5563"/>
<path d="M175 300H179V304H175V300Z" fill="#4B5563"/>
<path d="M195 300H199V304H195V300Z" fill="#4B5563"/>
<path d="M215 300H219V304H215V300Z" fill="#4B5563"/>
<path d="M235 300H239V304H235V300Z" fill="#4B5563"/>
<path d="M255 300H259V304H255V300Z" fill="#4B5563"/>
<path d="M-145 320H-141V324H-145V320Z" fill="#4B5563"/>
<path d="M-125 320H-121V324H-125V320Z" fill="#4B5563"/>
<path d="M-105 320H-101V324H-105V320Z" fill="#4B5563"/>
<path d="M-85 320H-81V324H-85V320Z" fill="#4B5563"/>
<path d="M-65 320H-61V324H-65V320Z" fill="#4B5563"/>
<path d="M-45 320H-41V324H-45V320Z" fill="#4B5563"/>
<path d="M-25 320H-21V324H-25V320Z" fill="#4B5563"/>
<path d="M-5 320H-1V324H-5V320Z" fill="#4B5563"/>
<path d="M15 320H19V324H15V320Z" fill="#4B5563"/>
<path d="M35 320H39V324H35V320Z" fill="#4B5563"/>
<path d="M55 320H59V324H55V320Z" fill="#4B5563"/>
<path d="M75 320H79V324H75V320Z" fill="#4B5563"/>
<path d="M95 320H99V324H95V320Z" fill="#4B5563"/>
<path d="M115 320H119V324H115V320Z" fill="#4B5563"/>
<path d="M135 320H139V324H135V320Z" fill="#4B5563"/>
<path d="M155 320H159V324H155V320Z" fill="#4B5563"/>
<path d="M175 320H179V324H175V320Z" fill="#4B5563"/>
<path d="M195 320H199V324H195V320Z" fill="#4B5563"/>
<path d="M215 320H219V324H215V320Z" fill="#4B5563"/>
<path d="M235 320H239V324H235V320Z" fill="#4B5563"/>
<path d="M255 320H259V324H255V320Z" fill="#4B5563"/>
<path d="M-145 340H-141V344H-145V340Z" fill="#4B5563"/>
<path d="M-125 340H-121V344H-125V340Z" fill="#4B5563"/>
<path d="M-105 340H-101V344H-105V340Z" fill="#4B5563"/>
<path d="M-85 340H-81V344H-85V340Z" fill="#4B5563"/>
<path d="M-65 340H-61V344H-65V340Z" fill="#4B5563"/>
<path d="M-45 340H-41V344H-45V340Z" fill="#4B5563"/>
<path d="M-25 340H-21V344H-25V340Z" fill="#4B5563"/>
<path d="M-5 340H-1V344H-5V340Z" fill="#4B5563"/>
<path d="M15 340H19V344H15V340Z" fill="#4B5563"/>
<path d="M35 340H39V344H35V340Z" fill="#4B5563"/>
<path d="M55 340H59V344H55V340Z" fill="#4B5563"/>
<path d="M75 340H79V344H75V340Z" fill="#4B5563"/>
<path d="M95 340H99V344H95V340Z" fill="#4B5563"/>
<path d="M115 340H119V344H115V340Z" fill="#4B5563"/>
<path d="M135 340H139V344H135V340Z" fill="#4B5563"/>
<path d="M155 340H159V344H155V340Z" fill="#4B5563"/>
<path d="M175 340H179V344H175V340Z" fill="#4B5563"/>
<path d="M195 340H199V344H195V340Z" fill="#4B5563"/>
<path d="M215 340H219V344H215V340Z" fill="#4B5563"/>
<path d="M235 340H239V344H235V340Z" fill="#4B5563"/>
<path d="M255 340H259V344H255V340Z" fill="#4B5563"/>
<path d="M-145 360H-141V364H-145V360Z" fill="#4B5563"/>
<path d="M-125 360H-121V364H-125V360Z" fill="#4B5563"/>
<path d="M-105 360H-101V364H-105V360Z" fill="#4B5563"/>
<path d="M-85 360H-81V364H-85V360Z" fill="#4B5563"/>
<path d="M-65 360H-61V364H-65V360Z" fill="#4B5563"/>
<path d="M-45 360H-41V364H-45V360Z" fill="#4B5563"/>
<path d="M-25 360H-21V364H-25V360Z" fill="#4B5563"/>
<path d="M-5 360H-1V364H-5V360Z" fill="#4B5563"/>
<path d="M15 360H19V364H15V360Z" fill="#4B5563"/>
<path d="M35 360H39V364H35V360Z" fill="#4B5563"/>
<path d="M55 360H59V364H55V360Z" fill="#4B5563"/>
<path d="M75 360H79V364H75V360Z" fill="#4B5563"/>
<path d="M95 360H99V364H95V360Z" fill="#4B5563"/>
<path d="M115 360H119V364H115V360Z" fill="#4B5563"/>
<path d="M135 360H139V364H135V360Z" fill="#4B5563"/>
<path d="M155 360H159V364H155V360Z" fill="#4B5563"/>
<path d="M175 360H179V364H175V360Z" fill="#4B5563"/>
<path d="M195 360H199V364H195V360Z" fill="#4B5563"/>
<path d="M215 360H219V364H215V360Z" fill="#4B5563"/>
<path d="M235 360H239V364H235V360Z" fill="#4B5563"/>
<path d="M255 360H259V364H255V360Z" fill="#4B5563"/>
<path d="M-145 380H-141V384H-145V380Z" fill="#4B5563"/>
<path d="M-125 380H-121V384H-125V380Z" fill="#4B5563"/>
<path d="M-105 380H-101V384H-105V380Z" fill="#4B5563"/>
<path d="M-85 380H-81V384H-85V380Z" fill="#4B5563"/>
<path d="M-65 380H-61V384H-65V380Z" fill="#4B5563"/>
<path d="M-45 380H-41V384H-45V380Z" fill="#4B5563"/>
<path d="M-25 380H-21V384H-25V380Z" fill="#4B5563"/>
<path d="M-5 380H-1V384H-5V380Z" fill="#4B5563"/>
<path d="M15 380H19V384H15V380Z" fill="#4B5563"/>
<path d="M35 380H39V384H35V380Z" fill="#4B5563"/>
<path d="M55 380H59V384H55V380Z" fill="#4B5563"/>
<path d="M75 380H79V384H75V380Z" fill="#4B5563"/>
<path d="M95 380H99V384H95V380Z" fill="#4B5563"/>
<path d="M115 380H119V384H115V380Z" fill="#4B5563"/>
<path d="M135 380H139V384H135V380Z" fill="#4B5563"/>
<path d="M155 380H159V384H155V380Z" fill="#4B5563"/>
<path d="M175 380H179V384H175V380Z" fill="#4B5563"/>
<path d="M195 380H199V384H195V380Z" fill="#4B5563"/>
<path d="M215 380H219V384H215V380Z" fill="#4B5563"/>
<path d="M235 380H239V384H235V380Z" fill="#4B5563"/>
<path d="M255 380H259V384H255V380Z" fill="#4B5563"/>
<path d="M-145 400H-141V404H-145V400Z" fill="#4B5563"/>
<path d="M-125 400H-121V404H-125V400Z" fill="#4B5563"/>
<path d="M-105 400H-101V404H-105V400Z" fill="#4B5563"/>
<path d="M-85 400H-81V404H-85V400Z" fill="#4B5563"/>
<path d="M-65 400H-61V404H-65V400Z" fill="#4B5563"/>
<path d="M-45 400H-41V404H-45V400Z" fill="#4B5563"/>
<path d="M-25 400H-21V404H-25V400Z" fill="#4B5563"/>
<path d="M-5 400H-1V404H-5V400Z" fill="#4B5563"/>
<path d="M15 400H19V404H15V400Z" fill="#4B5563"/>
<path d="M35 400H39V404H35V400Z" fill="#4B5563"/>
<path d="M55 400H59V404H55V400Z" fill="#4B5563"/>
<path d="M75 400H79V404H75V400Z" fill="#4B5563"/>
<path d="M95 400H99V404H95V400Z" fill="#4B5563"/>
<path d="M115 400H119V404H115V400Z" fill="#4B5563"/>
<path d="M135 400H139V404H135V400Z" fill="#4B5563"/>
<path d="M155 400H159V404H155V400Z" fill="#4B5563"/>
<path d="M175 400H179V404H175V400Z" fill="#4B5563"/>
<path d="M195 400H199V404H195V400Z" fill="#4B5563"/>
<path d="M215 400H219V404H215V400Z" fill="#4B5563"/>
<path d="M235 400H239V404H235V400Z" fill="#4B5563"/>
<path d="M255 400H259V404H255V400Z" fill="#4B5563"/>
</g>
<defs>
<clipPath id="clip0">
<rect width="404" height="299" fill="white" transform="translate(-145)"/>
</clipPath>
</defs>
</svg>
