<svg width="282" height="404" viewBox="0 0 282 404" fill="none" xmlns="http://www.w3.org/2000/svg">
<path d="M-122 0H-118V4H-122V0Z" fill="#E5E7EB"/>
<path d="M-102 0H-98V4H-102V0Z" fill="#E5E7EB"/>
<path d="M-82 0H-78V4H-82V0Z" fill="#E5E7EB"/>
<path d="M-62 0H-58V4H-62V0Z" fill="#E5E7EB"/>
<path d="M-42 0H-38V4H-42V0Z" fill="#E5E7EB"/>
<path d="M-22 0H-18V4H-22V0Z" fill="#E5E7EB"/>
<path d="M-2 0H2V4H-2V0Z" fill="#E5E7EB"/>
<path d="M18 0H22V4H18V0Z" fill="#E5E7EB"/>
<path d="M38 0H42V4H38V0Z" fill="#E5E7EB"/>
<path d="M58 0H62V4H58V0Z" fill="#E5E7EB"/>
<path d="M78 0H82V4H78V0Z" fill="#E5E7EB"/>
<path d="M98 0H102V4H98V0Z" fill="#E5E7EB"/>
<path d="M118 0H122V4H118V0Z" fill="#E5E7EB"/>
<path d="M138 0H142V4H138V0Z" fill="#E5E7EB"/>
<path d="M158 0H162V4H158V0Z" fill="#E5E7EB"/>
<path d="M178 0H182V4H178V0Z" fill="#E5E7EB"/>
<path d="M198 0H202V4H198V0Z" fill="#E5E7EB"/>
<path d="M218 0H222V4H218V0Z" fill="#E5E7EB"/>
<path d="M238 0H242V4H238V0Z" fill="#E5E7EB"/>
<path d="M258 0H262V4H258V0Z" fill="#E5E7EB"/>
<path d="M278 0H282V4H278V0Z" fill="#E5E7EB"/>
<path d="M-122 20H-118V24H-122V20Z" fill="#E5E7EB"/>
<path d="M-102 20H-98V24H-102V20Z" fill="#E5E7EB"/>
<path d="M-82 20H-78V24H-82V20Z" fill="#E5E7EB"/>
<path d="M-62 20H-58V24H-62V20Z" fill="#E5E7EB"/>
<path d="M-42 20H-38V24H-42V20Z" fill="#E5E7EB"/>
<path d="M-22 20H-18V24H-22V20Z" fill="#E5E7EB"/>
<path d="M-2 20H2V24H-2V20Z" fill="#E5E7EB"/>
<path d="M18 20H22V24H18V20Z" fill="#E5E7EB"/>
<path d="M38 20H42V24H38V20Z" fill="#E5E7EB"/>
<path d="M58 20H62V24H58V20Z" fill="#E5E7EB"/>
<path d="M78 20H82V24H78V20Z" fill="#E5E7EB"/>
<path d="M98 20H102V24H98V20Z" fill="#E5E7EB"/>
<path d="M118 20H122V24H118V20Z" fill="#E5E7EB"/>
<path d="M138 20H142V24H138V20Z" fill="#E5E7EB"/>
<path d="M158 20H162V24H158V20Z" fill="#E5E7EB"/>
<path d="M178 20H182V24H178V20Z" fill="#E5E7EB"/>
<path d="M198 20H202V24H198V20Z" fill="#E5E7EB"/>
<path d="M218 20H222V24H218V20Z" fill="#E5E7EB"/>
<path d="M238 20H242V24H238V20Z" fill="#E5E7EB"/>
<path d="M258 20H262V24H258V20Z" fill="#E5E7EB"/>
<path d="M278 20H282V24H278V20Z" fill="#E5E7EB"/>
<path d="M-122 40H-118V44H-122V40Z" fill="#E5E7EB"/>
<path d="M-102 40H-98V44H-102V40Z" fill="#E5E7EB"/>
<path d="M-82 40H-78V44H-82V40Z" fill="#E5E7EB"/>
<path d="M-62 40H-58V44H-62V40Z" fill="#E5E7EB"/>
<path d="M-42 40H-38V44H-42V40Z" fill="#E5E7EB"/>
<path d="M-22 40H-18V44H-22V40Z" fill="#E5E7EB"/>
<path d="M-2 40H2V44H-2V40Z" fill="#E5E7EB"/>
<path d="M18 40H22V44H18V40Z" fill="#E5E7EB"/>
<path d="M38 40H42V44H38V40Z" fill="#E5E7EB"/>
<path d="M58 40H62V44H58V40Z" fill="#E5E7EB"/>
<path d="M78 40H82V44H78V40Z" fill="#E5E7EB"/>
<path d="M98 40H102V44H98V40Z" fill="#E5E7EB"/>
<path d="M118 40H122V44H118V40Z" fill="#E5E7EB"/>
<path d="M138 40H142V44H138V40Z" fill="#E5E7EB"/>
<path d="M158 40H162V44H158V40Z" fill="#E5E7EB"/>
<path d="M178 40H182V44H178V40Z" fill="#E5E7EB"/>
<path d="M198 40H202V44H198V40Z" fill="#E5E7EB"/>
<path d="M218 40H222V44H218V40Z" fill="#E5E7EB"/>
<path d="M238 40H242V44H238V40Z" fill="#E5E7EB"/>
<path d="M258 40H262V44H258V40Z" fill="#E5E7EB"/>
<path d="M278 40H282V44H278V40Z" fill="#E5E7EB"/>
<path d="M-122 60H-118V64H-122V60Z" fill="#E5E7EB"/>
<path d="M-102 60H-98V64H-102V60Z" fill="#E5E7EB"/>
<path d="M-82 60H-78V64H-82V60Z" fill="#E5E7EB"/>
<path d="M-62 60H-58V64H-62V60Z" fill="#E5E7EB"/>
<path d="M-42 60H-38V64H-42V60Z" fill="#E5E7EB"/>
<path d="M-22 60H-18V64H-22V60Z" fill="#E5E7EB"/>
<path d="M-2 60H2V64H-2V60Z" fill="#E5E7EB"/>
<path d="M18 60H22V64H18V60Z" fill="#E5E7EB"/>
<path d="M38 60H42V64H38V60Z" fill="#E5E7EB"/>
<path d="M58 60H62V64H58V60Z" fill="#E5E7EB"/>
<path d="M78 60H82V64H78V60Z" fill="#E5E7EB"/>
<path d="M98 60H102V64H98V60Z" fill="#E5E7EB"/>
<path d="M118 60H122V64H118V60Z" fill="#E5E7EB"/>
<path d="M138 60H142V64H138V60Z" fill="#E5E7EB"/>
<path d="M158 60H162V64H158V60Z" fill="#E5E7EB"/>
<path d="M178 60H182V64H178V60Z" fill="#E5E7EB"/>
<path d="M198 60H202V64H198V60Z" fill="#E5E7EB"/>
<path d="M218 60H222V64H218V60Z" fill="#E5E7EB"/>
<path d="M238 60H242V64H238V60Z" fill="#E5E7EB"/>
<path d="M258 60H262V64H258V60Z" fill="#E5E7EB"/>
<path d="M278 60H282V64H278V60Z" fill="#E5E7EB"/>
<path d="M-122 80H-118V84H-122V80Z" fill="#E5E7EB"/>
<path d="M-102 80H-98V84H-102V80Z" fill="#E5E7EB"/>
<path d="M-82 80H-78V84H-82V80Z" fill="#E5E7EB"/>
<path d="M-62 80H-58V84H-62V80Z" fill="#E5E7EB"/>
<path d="M-42 80H-38V84H-42V80Z" fill="#E5E7EB"/>
<path d="M-22 80H-18V84H-22V80Z" fill="#E5E7EB"/>
<path d="M-2 80H2V84H-2V80Z" fill="#E5E7EB"/>
<path d="M18 80H22V84H18V80Z" fill="#E5E7EB"/>
<path d="M38 80H42V84H38V80Z" fill="#E5E7EB"/>
<path d="M58 80H62V84H58V80Z" fill="#E5E7EB"/>
<path d="M78 80H82V84H78V80Z" fill="#E5E7EB"/>
<path d="M98 80H102V84H98V80Z" fill="#E5E7EB"/>
<path d="M118 80H122V84H118V80Z" fill="#E5E7EB"/>
<path d="M138 80H142V84H138V80Z" fill="#E5E7EB"/>
<path d="M158 80H162V84H158V80Z" fill="#E5E7EB"/>
<path d="M178 80H182V84H178V80Z" fill="#E5E7EB"/>
<path d="M198 80H202V84H198V80Z" fill="#E5E7EB"/>
<path d="M218 80H222V84H218V80Z" fill="#E5E7EB"/>
<path d="M238 80H242V84H238V80Z" fill="#E5E7EB"/>
<path d="M258 80H262V84H258V80Z" fill="#E5E7EB"/>
<path d="M278 80H282V84H278V80Z" fill="#E5E7EB"/>
<path d="M-122 100H-118V104H-122V100Z" fill="#E5E7EB"/>
<path d="M-102 100H-98V104H-102V100Z" fill="#E5E7EB"/>
<path d="M-82 100H-78V104H-82V100Z" fill="#E5E7EB"/>
<path d="M-62 100H-58V104H-62V100Z" fill="#E5E7EB"/>
<path d="M-42 100H-38V104H-42V100Z" fill="#E5E7EB"/>
<path d="M-22 100H-18V104H-22V100Z" fill="#E5E7EB"/>
<path d="M-2 100H2V104H-2V100Z" fill="#E5E7EB"/>
<path d="M18 100H22V104H18V100Z" fill="#E5E7EB"/>
<path d="M38 100H42V104H38V100Z" fill="#E5E7EB"/>
<path d="M58 100H62V104H58V100Z" fill="#E5E7EB"/>
<path d="M78 100H82V104H78V100Z" fill="#E5E7EB"/>
<path d="M98 100H102V104H98V100Z" fill="#E5E7EB"/>
<path d="M118 100H122V104H118V100Z" fill="#E5E7EB"/>
<path d="M138 100H142V104H138V100Z" fill="#E5E7EB"/>
<path d="M158 100H162V104H158V100Z" fill="#E5E7EB"/>
<path d="M178 100H182V104H178V100Z" fill="#E5E7EB"/>
<path d="M198 100H202V104H198V100Z" fill="#E5E7EB"/>
<path d="M218 100H222V104H218V100Z" fill="#E5E7EB"/>
<path d="M238 100H242V104H238V100Z" fill="#E5E7EB"/>
<path d="M258 100H262V104H258V100Z" fill="#E5E7EB"/>
<path d="M278 100H282V104H278V100Z" fill="#E5E7EB"/>
<path d="M-122 120H-118V124H-122V120Z" fill="#E5E7EB"/>
<path d="M-102 120H-98V124H-102V120Z" fill="#E5E7EB"/>
<path d="M-82 120H-78V124H-82V120Z" fill="#E5E7EB"/>
<path d="M-62 120H-58V124H-62V120Z" fill="#E5E7EB"/>
<path d="M-42 120H-38V124H-42V120Z" fill="#E5E7EB"/>
<path d="M-22 120H-18V124H-22V120Z" fill="#E5E7EB"/>
<path d="M-2 120H2V124H-2V120Z" fill="#E5E7EB"/>
<path d="M18 120H22V124H18V120Z" fill="#E5E7EB"/>
<path d="M38 120H42V124H38V120Z" fill="#E5E7EB"/>
<path d="M58 120H62V124H58V120Z" fill="#E5E7EB"/>
<path d="M78 120H82V124H78V120Z" fill="#E5E7EB"/>
<path d="M98 120H102V124H98V120Z" fill="#E5E7EB"/>
<path d="M118 120H122V124H118V120Z" fill="#E5E7EB"/>
<path d="M138 120H142V124H138V120Z" fill="#E5E7EB"/>
<path d="M158 120H162V124H158V120Z" fill="#E5E7EB"/>
<path d="M178 120H182V124H178V120Z" fill="#E5E7EB"/>
<path d="M198 120H202V124H198V120Z" fill="#E5E7EB"/>
<path d="M218 120H222V124H218V120Z" fill="#E5E7EB"/>
<path d="M238 120H242V124H238V120Z" fill="#E5E7EB"/>
<path d="M258 120H262V124H258V120Z" fill="#E5E7EB"/>
<path d="M278 120H282V124H278V120Z" fill="#E5E7EB"/>
<path d="M-122 140H-118V144H-122V140Z" fill="#E5E7EB"/>
<path d="M-102 140H-98V144H-102V140Z" fill="#E5E7EB"/>
<path d="M-82 140H-78V144H-82V140Z" fill="#E5E7EB"/>
<path d="M-62 140H-58V144H-62V140Z" fill="#E5E7EB"/>
<path d="M-42 140H-38V144H-42V140Z" fill="#E5E7EB"/>
<path d="M-22 140H-18V144H-22V140Z" fill="#E5E7EB"/>
<path d="M-2 140H2V144H-2V140Z" fill="#E5E7EB"/>
<path d="M18 140H22V144H18V140Z" fill="#E5E7EB"/>
<path d="M38 140H42V144H38V140Z" fill="#E5E7EB"/>
<path d="M58 140H62V144H58V140Z" fill="#E5E7EB"/>
<path d="M78 140H82V144H78V140Z" fill="#E5E7EB"/>
<path d="M98 140H102V144H98V140Z" fill="#E5E7EB"/>
<path d="M118 140H122V144H118V140Z" fill="#E5E7EB"/>
<path d="M138 140H142V144H138V140Z" fill="#E5E7EB"/>
<path d="M158 140H162V144H158V140Z" fill="#E5E7EB"/>
<path d="M178 140H182V144H178V140Z" fill="#E5E7EB"/>
<path d="M198 140H202V144H198V140Z" fill="#E5E7EB"/>
<path d="M218 140H222V144H218V140Z" fill="#E5E7EB"/>
<path d="M238 140H242V144H238V140Z" fill="#E5E7EB"/>
<path d="M258 140H262V144H258V140Z" fill="#E5E7EB"/>
<path d="M278 140H282V144H278V140Z" fill="#E5E7EB"/>
<path d="M-122 160H-118V164H-122V160Z" fill="#E5E7EB"/>
<path d="M-102 160H-98V164H-102V160Z" fill="#E5E7EB"/>
<path d="M-82 160H-78V164H-82V160Z" fill="#E5E7EB"/>
<path d="M-62 160H-58V164H-62V160Z" fill="#E5E7EB"/>
<path d="M-42 160H-38V164H-42V160Z" fill="#E5E7EB"/>
<path d="M-22 160H-18V164H-22V160Z" fill="#E5E7EB"/>
<path d="M-2 160H2V164H-2V160Z" fill="#E5E7EB"/>
<path d="M18 160H22V164H18V160Z" fill="#E5E7EB"/>
<path d="M38 160H42V164H38V160Z" fill="#E5E7EB"/>
<path d="M58 160H62V164H58V160Z" fill="#E5E7EB"/>
<path d="M78 160H82V164H78V160Z" fill="#E5E7EB"/>
<path d="M98 160H102V164H98V160Z" fill="#E5E7EB"/>
<path d="M118 160H122V164H118V160Z" fill="#E5E7EB"/>
<path d="M138 160H142V164H138V160Z" fill="#E5E7EB"/>
<path d="M158 160H162V164H158V160Z" fill="#E5E7EB"/>
<path d="M178 160H182V164H178V160Z" fill="#E5E7EB"/>
<path d="M198 160H202V164H198V160Z" fill="#E5E7EB"/>
<path d="M218 160H222V164H218V160Z" fill="#E5E7EB"/>
<path d="M238 160H242V164H238V160Z" fill="#E5E7EB"/>
<path d="M258 160H262V164H258V160Z" fill="#E5E7EB"/>
<path d="M278 160H282V164H278V160Z" fill="#E5E7EB"/>
<path d="M-122 180H-118V184H-122V180Z" fill="#E5E7EB"/>
<path d="M-102 180H-98V184H-102V180Z" fill="#E5E7EB"/>
<path d="M-82 180H-78V184H-82V180Z" fill="#E5E7EB"/>
<path d="M-62 180H-58V184H-62V180Z" fill="#E5E7EB"/>
<path d="M-42 180H-38V184H-42V180Z" fill="#E5E7EB"/>
<path d="M-22 180H-18V184H-22V180Z" fill="#E5E7EB"/>
<path d="M-2 180H2V184H-2V180Z" fill="#E5E7EB"/>
<path d="M18 180H22V184H18V180Z" fill="#E5E7EB"/>
<path d="M38 180H42V184H38V180Z" fill="#E5E7EB"/>
<path d="M58 180H62V184H58V180Z" fill="#E5E7EB"/>
<path d="M78 180H82V184H78V180Z" fill="#E5E7EB"/>
<path d="M98 180H102V184H98V180Z" fill="#E5E7EB"/>
<path d="M118 180H122V184H118V180Z" fill="#E5E7EB"/>
<path d="M138 180H142V184H138V180Z" fill="#E5E7EB"/>
<path d="M158 180H162V184H158V180Z" fill="#E5E7EB"/>
<path d="M178 180H182V184H178V180Z" fill="#E5E7EB"/>
<path d="M198 180H202V184H198V180Z" fill="#E5E7EB"/>
<path d="M218 180H222V184H218V180Z" fill="#E5E7EB"/>
<path d="M238 180H242V184H238V180Z" fill="#E5E7EB"/>
<path d="M258 180H262V184H258V180Z" fill="#E5E7EB"/>
<path d="M278 180H282V184H278V180Z" fill="#E5E7EB"/>
<path d="M-122 200H-118V204H-122V200Z" fill="#E5E7EB"/>
<path d="M-102 200H-98V204H-102V200Z" fill="#E5E7EB"/>
<path d="M-82 200H-78V204H-82V200Z" fill="#E5E7EB"/>
<path d="M-62 200H-58V204H-62V200Z" fill="#E5E7EB"/>
<path d="M-42 200H-38V204H-42V200Z" fill="#E5E7EB"/>
<path d="M-22 200H-18V204H-22V200Z" fill="#E5E7EB"/>
<path d="M-2 200H2V204H-2V200Z" fill="#E5E7EB"/>
<path d="M18 200H22V204H18V200Z" fill="#E5E7EB"/>
<path d="M38 200H42V204H38V200Z" fill="#E5E7EB"/>
<path d="M58 200H62V204H58V200Z" fill="#E5E7EB"/>
<path d="M78 200H82V204H78V200Z" fill="#E5E7EB"/>
<path d="M98 200H102V204H98V200Z" fill="#E5E7EB"/>
<path d="M118 200H122V204H118V200Z" fill="#E5E7EB"/>
<path d="M138 200H142V204H138V200Z" fill="#E5E7EB"/>
<path d="M158 200H162V204H158V200Z" fill="#E5E7EB"/>
<path d="M178 200H182V204H178V200Z" fill="#E5E7EB"/>
<path d="M198 200H202V204H198V200Z" fill="#E5E7EB"/>
<path d="M218 200H222V204H218V200Z" fill="#E5E7EB"/>
<path d="M238 200H242V204H238V200Z" fill="#E5E7EB"/>
<path d="M258 200H262V204H258V200Z" fill="#E5E7EB"/>
<path d="M278 200H282V204H278V200Z" fill="#E5E7EB"/>
<path d="M-122 220H-118V224H-122V220Z" fill="#E5E7EB"/>
<path d="M-102 220H-98V224H-102V220Z" fill="#E5E7EB"/>
<path d="M-82 220H-78V224H-82V220Z" fill="#E5E7EB"/>
<path d="M-62 220H-58V224H-62V220Z" fill="#E5E7EB"/>
<path d="M-42 220H-38V224H-42V220Z" fill="#E5E7EB"/>
<path d="M-22 220H-18V224H-22V220Z" fill="#E5E7EB"/>
<path d="M-2 220H2V224H-2V220Z" fill="#E5E7EB"/>
<path d="M18 220H22V224H18V220Z" fill="#E5E7EB"/>
<path d="M38 220H42V224H38V220Z" fill="#E5E7EB"/>
<path d="M58 220H62V224H58V220Z" fill="#E5E7EB"/>
<path d="M78 220H82V224H78V220Z" fill="#E5E7EB"/>
<path d="M98 220H102V224H98V220Z" fill="#E5E7EB"/>
<path d="M118 220H122V224H118V220Z" fill="#E5E7EB"/>
<path d="M138 220H142V224H138V220Z" fill="#E5E7EB"/>
<path d="M158 220H162V224H158V220Z" fill="#E5E7EB"/>
<path d="M178 220H182V224H178V220Z" fill="#E5E7EB"/>
<path d="M198 220H202V224H198V220Z" fill="#E5E7EB"/>
<path d="M218 220H222V224H218V220Z" fill="#E5E7EB"/>
<path d="M238 220H242V224H238V220Z" fill="#E5E7EB"/>
<path d="M258 220H262V224H258V220Z" fill="#E5E7EB"/>
<path d="M278 220H282V224H278V220Z" fill="#E5E7EB"/>
<path d="M-122 240H-118V244H-122V240Z" fill="#E5E7EB"/>
<path d="M-102 240H-98V244H-102V240Z" fill="#E5E7EB"/>
<path d="M-82 240H-78V244H-82V240Z" fill="#E5E7EB"/>
<path d="M-62 240H-58V244H-62V240Z" fill="#E5E7EB"/>
<path d="M-42 240H-38V244H-42V240Z" fill="#E5E7EB"/>
<path d="M-22 240H-18V244H-22V240Z" fill="#E5E7EB"/>
<path d="M-2 240H2V244H-2V240Z" fill="#E5E7EB"/>
<path d="M18 240H22V244H18V240Z" fill="#E5E7EB"/>
<path d="M38 240H42V244H38V240Z" fill="#E5E7EB"/>
<path d="M58 240H62V244H58V240Z" fill="#E5E7EB"/>
<path d="M78 240H82V244H78V240Z" fill="#E5E7EB"/>
<path d="M98 240H102V244H98V240Z" fill="#E5E7EB"/>
<path d="M118 240H122V244H118V240Z" fill="#E5E7EB"/>
<path d="M138 240H142V244H138V240Z" fill="#E5E7EB"/>
<path d="M158 240H162V244H158V240Z" fill="#E5E7EB"/>
<path d="M178 240H182V244H178V240Z" fill="#E5E7EB"/>
<path d="M198 240H202V244H198V240Z" fill="#E5E7EB"/>
<path d="M218 240H222V244H218V240Z" fill="#E5E7EB"/>
<path d="M238 240H242V244H238V240Z" fill="#E5E7EB"/>
<path d="M258 240H262V244H258V240Z" fill="#E5E7EB"/>
<path d="M278 240H282V244H278V240Z" fill="#E5E7EB"/>
<path d="M-122 260H-118V264H-122V260Z" fill="#E5E7EB"/>
<path d="M-102 260H-98V264H-102V260Z" fill="#E5E7EB"/>
<path d="M-82 260H-78V264H-82V260Z" fill="#E5E7EB"/>
<path d="M-62 260H-58V264H-62V260Z" fill="#E5E7EB"/>
<path d="M-42 260H-38V264H-42V260Z" fill="#E5E7EB"/>
<path d="M-22 260H-18V264H-22V260Z" fill="#E5E7EB"/>
<path d="M-2 260H2V264H-2V260Z" fill="#E5E7EB"/>
<path d="M18 260H22V264H18V260Z" fill="#E5E7EB"/>
<path d="M38 260H42V264H38V260Z" fill="#E5E7EB"/>
<path d="M58 260H62V264H58V260Z" fill="#E5E7EB"/>
<path d="M78 260H82V264H78V260Z" fill="#E5E7EB"/>
<path d="M98 260H102V264H98V260Z" fill="#E5E7EB"/>
<path d="M118 260H122V264H118V260Z" fill="#E5E7EB"/>
<path d="M138 260H142V264H138V260Z" fill="#E5E7EB"/>
<path d="M158 260H162V264H158V260Z" fill="#E5E7EB"/>
<path d="M178 260H182V264H178V260Z" fill="#E5E7EB"/>
<path d="M198 260H202V264H198V260Z" fill="#E5E7EB"/>
<path d="M218 260H222V264H218V260Z" fill="#E5E7EB"/>
<path d="M238 260H242V264H238V260Z" fill="#E5E7EB"/>
<path d="M258 260H262V264H258V260Z" fill="#E5E7EB"/>
<path d="M278 260H282V264H278V260Z" fill="#E5E7EB"/>
<path d="M-122 280H-118V284H-122V280Z" fill="#E5E7EB"/>
<path d="M-102 280H-98V284H-102V280Z" fill="#E5E7EB"/>
<path d="M-82 280H-78V284H-82V280Z" fill="#E5E7EB"/>
<path d="M-62 280H-58V284H-62V280Z" fill="#E5E7EB"/>
<path d="M-42 280H-38V284H-42V280Z" fill="#E5E7EB"/>
<path d="M-22 280H-18V284H-22V280Z" fill="#E5E7EB"/>
<path d="M-2 280H2V284H-2V280Z" fill="#E5E7EB"/>
<path d="M18 280H22V284H18V280Z" fill="#E5E7EB"/>
<path d="M38 280H42V284H38V280Z" fill="#E5E7EB"/>
<path d="M58 280H62V284H58V280Z" fill="#E5E7EB"/>
<path d="M78 280H82V284H78V280Z" fill="#E5E7EB"/>
<path d="M98 280H102V284H98V280Z" fill="#E5E7EB"/>
<path d="M118 280H122V284H118V280Z" fill="#E5E7EB"/>
<path d="M138 280H142V284H138V280Z" fill="#E5E7EB"/>
<path d="M158 280H162V284H158V280Z" fill="#E5E7EB"/>
<path d="M178 280H182V284H178V280Z" fill="#E5E7EB"/>
<path d="M198 280H202V284H198V280Z" fill="#E5E7EB"/>
<path d="M218 280H222V284H218V280Z" fill="#E5E7EB"/>
<path d="M238 280H242V284H238V280Z" fill="#E5E7EB"/>
<path d="M258 280H262V284H258V280Z" fill="#E5E7EB"/>
<path d="M278 280H282V284H278V280Z" fill="#E5E7EB"/>
<path d="M-122 300H-118V304H-122V300Z" fill="#E5E7EB"/>
<path d="M-102 300H-98V304H-102V300Z" fill="#E5E7EB"/>
<path d="M-82 300H-78V304H-82V300Z" fill="#E5E7EB"/>
<path d="M-62 300H-58V304H-62V300Z" fill="#E5E7EB"/>
<path d="M-42 300H-38V304H-42V300Z" fill="#E5E7EB"/>
<path d="M-22 300H-18V304H-22V300Z" fill="#E5E7EB"/>
<path d="M-2 300H2V304H-2V300Z" fill="#E5E7EB"/>
<path d="M18 300H22V304H18V300Z" fill="#E5E7EB"/>
<path d="M38 300H42V304H38V300Z" fill="#E5E7EB"/>
<path d="M58 300H62V304H58V300Z" fill="#E5E7EB"/>
<path d="M78 300H82V304H78V300Z" fill="#E5E7EB"/>
<path d="M98 300H102V304H98V300Z" fill="#E5E7EB"/>
<path d="M118 300H122V304H118V300Z" fill="#E5E7EB"/>
<path d="M138 300H142V304H138V300Z" fill="#E5E7EB"/>
<path d="M158 300H162V304H158V300Z" fill="#E5E7EB"/>
<path d="M178 300H182V304H178V300Z" fill="#E5E7EB"/>
<path d="M198 300H202V304H198V300Z" fill="#E5E7EB"/>
<path d="M218 300H222V304H218V300Z" fill="#E5E7EB"/>
<path d="M238 300H242V304H238V300Z" fill="#E5E7EB"/>
<path d="M258 300H262V304H258V300Z" fill="#E5E7EB"/>
<path d="M278 300H282V304H278V300Z" fill="#E5E7EB"/>
<path d="M-122 320H-118V324H-122V320Z" fill="#E5E7EB"/>
<path d="M-102 320H-98V324H-102V320Z" fill="#E5E7EB"/>
<path d="M-82 320H-78V324H-82V320Z" fill="#E5E7EB"/>
<path d="M-62 320H-58V324H-62V320Z" fill="#E5E7EB"/>
<path d="M-42 320H-38V324H-42V320Z" fill="#E5E7EB"/>
<path d="M-22 320H-18V324H-22V320Z" fill="#E5E7EB"/>
<path d="M-2 320H2V324H-2V320Z" fill="#E5E7EB"/>
<path d="M18 320H22V324H18V320Z" fill="#E5E7EB"/>
<path d="M38 320H42V324H38V320Z" fill="#E5E7EB"/>
<path d="M58 320H62V324H58V320Z" fill="#E5E7EB"/>
<path d="M78 320H82V324H78V320Z" fill="#E5E7EB"/>
<path d="M98 320H102V324H98V320Z" fill="#E5E7EB"/>
<path d="M118 320H122V324H118V320Z" fill="#E5E7EB"/>
<path d="M138 320H142V324H138V320Z" fill="#E5E7EB"/>
<path d="M158 320H162V324H158V320Z" fill="#E5E7EB"/>
<path d="M178 320H182V324H178V320Z" fill="#E5E7EB"/>
<path d="M198 320H202V324H198V320Z" fill="#E5E7EB"/>
<path d="M218 320H222V324H218V320Z" fill="#E5E7EB"/>
<path d="M238 320H242V324H238V320Z" fill="#E5E7EB"/>
<path d="M258 320H262V324H258V320Z" fill="#E5E7EB"/>
<path d="M278 320H282V324H278V320Z" fill="#E5E7EB"/>
<path d="M-122 340H-118V344H-122V340Z" fill="#E5E7EB"/>
<path d="M-102 340H-98V344H-102V340Z" fill="#E5E7EB"/>
<path d="M-82 340H-78V344H-82V340Z" fill="#E5E7EB"/>
<path d="M-62 340H-58V344H-62V340Z" fill="#E5E7EB"/>
<path d="M-42 340H-38V344H-42V340Z" fill="#E5E7EB"/>
<path d="M-22 340H-18V344H-22V340Z" fill="#E5E7EB"/>
<path d="M-2 340H2V344H-2V340Z" fill="#E5E7EB"/>
<path d="M18 340H22V344H18V340Z" fill="#E5E7EB"/>
<path d="M38 340H42V344H38V340Z" fill="#E5E7EB"/>
<path d="M58 340H62V344H58V340Z" fill="#E5E7EB"/>
<path d="M78 340H82V344H78V340Z" fill="#E5E7EB"/>
<path d="M98 340H102V344H98V340Z" fill="#E5E7EB"/>
<path d="M118 340H122V344H118V340Z" fill="#E5E7EB"/>
<path d="M138 340H142V344H138V340Z" fill="#E5E7EB"/>
<path d="M158 340H162V344H158V340Z" fill="#E5E7EB"/>
<path d="M178 340H182V344H178V340Z" fill="#E5E7EB"/>
<path d="M198 340H202V344H198V340Z" fill="#E5E7EB"/>
<path d="M218 340H222V344H218V340Z" fill="#E5E7EB"/>
<path d="M238 340H242V344H238V340Z" fill="#E5E7EB"/>
<path d="M258 340H262V344H258V340Z" fill="#E5E7EB"/>
<path d="M278 340H282V344H278V340Z" fill="#E5E7EB"/>
<path d="M-122 360H-118V364H-122V360Z" fill="#E5E7EB"/>
<path d="M-102 360H-98V364H-102V360Z" fill="#E5E7EB"/>
<path d="M-82 360H-78V364H-82V360Z" fill="#E5E7EB"/>
<path d="M-62 360H-58V364H-62V360Z" fill="#E5E7EB"/>
<path d="M-42 360H-38V364H-42V360Z" fill="#E5E7EB"/>
<path d="M-22 360H-18V364H-22V360Z" fill="#E5E7EB"/>
<path d="M-2 360H2V364H-2V360Z" fill="#E5E7EB"/>
<path d="M18 360H22V364H18V360Z" fill="#E5E7EB"/>
<path d="M38 360H42V364H38V360Z" fill="#E5E7EB"/>
<path d="M58 360H62V364H58V360Z" fill="#E5E7EB"/>
<path d="M78 360H82V364H78V360Z" fill="#E5E7EB"/>
<path d="M98 360H102V364H98V360Z" fill="#E5E7EB"/>
<path d="M118 360H122V364H118V360Z" fill="#E5E7EB"/>
<path d="M138 360H142V364H138V360Z" fill="#E5E7EB"/>
<path d="M158 360H162V364H158V360Z" fill="#E5E7EB"/>
<path d="M178 360H182V364H178V360Z" fill="#E5E7EB"/>
<path d="M198 360H202V364H198V360Z" fill="#E5E7EB"/>
<path d="M218 360H222V364H218V360Z" fill="#E5E7EB"/>
<path d="M238 360H242V364H238V360Z" fill="#E5E7EB"/>
<path d="M258 360H262V364H258V360Z" fill="#E5E7EB"/>
<path d="M278 360H282V364H278V360Z" fill="#E5E7EB"/>
<path d="M-122 380H-118V384H-122V380Z" fill="#E5E7EB"/>
<path d="M-102 380H-98V384H-102V380Z" fill="#E5E7EB"/>
<path d="M-82 380H-78V384H-82V380Z" fill="#E5E7EB"/>
<path d="M-62 380H-58V384H-62V380Z" fill="#E5E7EB"/>
<path d="M-42 380H-38V384H-42V380Z" fill="#E5E7EB"/>
<path d="M-22 380H-18V384H-22V380Z" fill="#E5E7EB"/>
<path d="M-2 380H2V384H-2V380Z" fill="#E5E7EB"/>
<path d="M18 380H22V384H18V380Z" fill="#E5E7EB"/>
<path d="M38 380H42V384H38V380Z" fill="#E5E7EB"/>
<path d="M58 380H62V384H58V380Z" fill="#E5E7EB"/>
<path d="M78 380H82V384H78V380Z" fill="#E5E7EB"/>
<path d="M98 380H102V384H98V380Z" fill="#E5E7EB"/>
<path d="M118 380H122V384H118V380Z" fill="#E5E7EB"/>
<path d="M138 380H142V384H138V380Z" fill="#E5E7EB"/>
<path d="M158 380H162V384H158V380Z" fill="#E5E7EB"/>
<path d="M178 380H182V384H178V380Z" fill="#E5E7EB"/>
<path d="M198 380H202V384H198V380Z" fill="#E5E7EB"/>
<path d="M218 380H222V384H218V380Z" fill="#E5E7EB"/>
<path d="M238 380H242V384H238V380Z" fill="#E5E7EB"/>
<path d="M258 380H262V384H258V380Z" fill="#E5E7EB"/>
<path d="M278 380H282V384H278V380Z" fill="#E5E7EB"/>
<path d="M-122 400H-118V404H-122V400Z" fill="#E5E7EB"/>
<path d="M-102 400H-98V404H-102V400Z" fill="#E5E7EB"/>
<path d="M-82 400H-78V404H-82V400Z" fill="#E5E7EB"/>
<path d="M-62 400H-58V404H-62V400Z" fill="#E5E7EB"/>
<path d="M-42 400H-38V404H-42V400Z" fill="#E5E7EB"/>
<path d="M-22 400H-18V404H-22V400Z" fill="#E5E7EB"/>
<path d="M-2 400H2V404H-2V400Z" fill="#E5E7EB"/>
<path d="M18 400H22V404H18V400Z" fill="#E5E7EB"/>
<path d="M38 400H42V404H38V400Z" fill="#E5E7EB"/>
<path d="M58 400H62V404H58V400Z" fill="#E5E7EB"/>
<path d="M78 400H82V404H78V400Z" fill="#E5E7EB"/>
<path d="M98 400H102V404H98V400Z" fill="#E5E7EB"/>
<path d="M118 400H122V404H118V400Z" fill="#E5E7EB"/>
<path d="M138 400H142V404H138V400Z" fill="#E5E7EB"/>
<path d="M158 400H162V404H158V400Z" fill="#E5E7EB"/>
<path d="M178 400H182V404H178V400Z" fill="#E5E7EB"/>
<path d="M198 400H202V404H198V400Z" fill="#E5E7EB"/>
<path d="M218 400H222V404H218V400Z" fill="#E5E7EB"/>
<path d="M238 400H242V404H238V400Z" fill="#E5E7EB"/>
<path d="M258 400H262V404H258V400Z" fill="#E5E7EB"/>
<path d="M278 400H282V404H278V400Z" fill="#E5E7EB"/>
</svg>
