<?xml version="1.0" standalone="no"?>
<!DOCTYPE svg PUBLIC "-//W3C//DTD SVG 20010904//EN"
 "http://www.w3.org/TR/2001/REC-SVG-20010904/DTD/svg10.dtd">
<svg version="1.0" xmlns="http://www.w3.org/2000/svg"
 width="247.000000pt" height="225.000000pt" viewBox="0 0 247.000000 225.000000"
 preserveAspectRatio="xMidYMid meet">

<g transform="translate(0.000000,225.000000) scale(0.100000,-0.100000)"
fill="#000000" stroke="none">
<path d="M685 2203 c-67 -24 -109 -55 -143 -106 -39 -58 -52 -99 -52 -172 0
-115 38 -181 150 -259 103 -72 172 -152 226 -261 62 -124 82 -227 67 -344 -22
-171 -85 -286 -224 -409 -200 -175 -211 -190 -217 -310 -5 -92 15 -149 75
-213 112 -120 297 -125 410 -12 62 62 83 115 93 240 5 59 18 134 29 166 50
145 146 269 270 351 102 67 150 146 151 247 0 108 -45 188 -144 253 -67 45
-185 167 -221 230 -50 85 -75 173 -86 289 -10 121 -28 172 -78 230 -71 80
-207 115 -306 80z"/>
<path d="M1597 2196 c-92 -33 -164 -109 -188 -201 -26 -96 13 -231 84 -291 64
-54 106 -69 197 -69 101 0 143 18 208 88 58 64 75 108 76 197 1 90 -22 145
-86 209 -73 72 -197 100 -291 67z"/>
<path d="M255 1411 c-96 -23 -180 -102 -210 -197 -46 -145 34 -311 173 -358
63 -22 167 -20 218 3 135 61 202 211 160 356 -14 46 -29 69 -74 114 -79 78
-168 106 -267 82z"/>
<path d="M2053 1402 c-244 -87 -271 -417 -42 -531 120 -60 256 -36 345 61 58
62 77 119 72 210 -5 86 -26 136 -81 191 -76 76 -195 104 -294 69z"/>
<path d="M1639 620 c-100 -17 -193 -96 -225 -192 -21 -65 -15 -167 14 -223 27
-54 85 -110 141 -137 67 -34 177 -32 246 4 105 55 160 145 159 264 0 181 -155
312 -335 284z"/>
</g>
</svg>
