<svg width="216" height="24" viewBox="0 0 216 24" fill="none" xmlns="http://www.w3.org/2000/svg">
<path fill-rule="evenodd" clip-rule="evenodd" d="M22 12C22 6.477 17.523 2 12 2C6.477 2 2 6.477 2 12C2 16.991 5.657 21.128 10.438 21.878V14.891H7.898V12H10.438V9.797C10.438 7.291 11.93 5.907 14.215 5.907C15.309 5.907 16.453 6.102 16.453 6.102V8.562H15.193C13.95 8.562 13.563 9.333 13.563 10.124V12H16.336L15.893 14.89H13.563V21.878C18.343 21.128 22 16.991 22 12Z" fill="#9CA3AF"/>
<path fill-rule="evenodd" clip-rule="evenodd" d="M60.315 2C62.745 2 63.099 2.013 64.123 2.06C65.187 2.109 65.914 2.278 66.55 2.525C67.2175 2.77587 67.8222 3.16936 68.322 3.678C68.8306 4.17777 69.2241 4.7825 69.475 5.45C69.722 6.086 69.891 6.813 69.94 7.877C69.988 8.944 70 9.284 70 12V12.08C70 14.723 69.988 15.067 69.94 16.123C69.891 17.187 69.722 17.914 69.475 18.55C69.2241 19.2175 68.8306 19.8222 68.322 20.322C67.8222 20.8306 67.2175 21.2241 66.55 21.475C65.914 21.722 65.187 21.891 64.123 21.94C63.056 21.988 62.716 22 60 22H59.92C57.277 22 56.933 21.988 55.877 21.94C54.813 21.891 54.086 21.722 53.45 21.475C52.7825 21.2241 52.1778 20.8306 51.678 20.322C51.1694 19.8222 50.7759 19.2175 50.525 18.55C50.278 17.914 50.109 17.187 50.06 16.123C50.013 15.099 50 14.744 50 12.315V11.685C50 9.255 50.013 8.901 50.06 7.877C50.109 6.813 50.278 6.086 50.525 5.45C50.7759 4.7825 51.1694 4.17777 51.678 3.678C52.1778 3.16936 52.7825 2.77587 53.45 2.525C54.086 2.278 54.813 2.109 55.877 2.06C56.901 2.013 57.256 2 59.685 2H60.315ZM60.234 3.802H59.766C57.31 3.802 56.982 3.813 55.959 3.86C54.984 3.905 54.455 4.067 54.102 4.204C53.635 4.386 53.302 4.602 52.952 4.952C52.602 5.302 52.386 5.635 52.204 6.102C52.067 6.455 51.904 6.984 51.86 7.959C51.813 8.982 51.802 9.31 51.802 11.766V12.234C51.802 14.69 51.813 15.018 51.86 16.041C51.905 17.016 52.067 17.545 52.204 17.898C52.386 18.364 52.603 18.698 52.952 19.048C53.302 19.398 53.635 19.614 54.102 19.796C54.455 19.933 54.984 20.096 55.959 20.14C57.013 20.188 57.329 20.198 60 20.198H60.08C62.677 20.198 62.997 20.188 64.04 20.14C65.016 20.095 65.545 19.933 65.898 19.796C66.364 19.614 66.698 19.398 67.048 19.048C67.398 18.698 67.614 18.365 67.796 17.898C67.933 17.545 68.096 17.016 68.14 16.041C68.188 14.986 68.198 14.671 68.198 12V11.92C68.198 9.323 68.188 9.003 68.14 7.96C68.095 6.984 67.933 6.455 67.796 6.102C67.6358 5.66757 67.3802 5.2746 67.048 4.952C66.7254 4.61986 66.3324 4.36426 65.898 4.204C65.545 4.067 65.016 3.904 64.041 3.86C63.018 3.813 62.69 3.802 60.234 3.802ZM60 6.865C60.6743 6.865 61.3421 6.99782 61.9651 7.25588C62.5881 7.51394 63.1542 7.89218 63.631 8.36901C64.1078 8.84584 64.4861 9.41191 64.7441 10.0349C65.0022 10.6579 65.135 11.3257 65.135 12C65.135 12.6743 65.0022 13.3421 64.7441 13.9651C64.4861 14.5881 64.1078 15.1542 63.631 15.631C63.1542 16.1078 62.5881 16.4861 61.9651 16.7441C61.3421 17.0022 60.6743 17.135 60 17.135C58.6381 17.135 57.332 16.594 56.369 15.631C55.406 14.668 54.865 13.3619 54.865 12C54.865 10.6381 55.406 9.33201 56.369 8.36901C57.332 7.40601 58.6381 6.865 60 6.865ZM60 8.667C59.116 8.667 58.2683 9.01815 57.6432 9.64321C57.0182 10.2683 56.667 11.116 56.667 12C56.667 12.884 57.0182 13.7317 57.6432 14.3568C58.2683 14.9818 59.116 15.333 60 15.333C60.884 15.333 61.7317 14.9818 62.3568 14.3568C62.9818 13.7317 63.333 12.884 63.333 12C63.333 11.116 62.9818 10.2683 62.3568 9.64321C61.7317 9.01815 60.884 8.667 60 8.667ZM65.338 5.462C65.6563 5.462 65.9615 5.58843 66.1865 5.81347C66.4116 6.03852 66.538 6.34374 66.538 6.662C66.538 6.98026 66.4116 7.28548 66.1865 7.51053C65.9615 7.73557 65.6563 7.862 65.338 7.862C65.0197 7.862 64.7145 7.73557 64.4895 7.51053C64.2644 7.28548 64.138 6.98026 64.138 6.662C64.138 6.34374 64.2644 6.03852 64.4895 5.81347C64.7145 5.58843 65.0197 5.462 65.338 5.462Z" fill="#9CA3AF"/>
<path d="M104.29 20.2534C111.837 20.2534 115.965 14.0004 115.965 8.5784C115.965 8.4004 115.965 8.2234 115.953 8.0484C116.756 7.46693 117.449 6.74701 118 5.9224C117.251 6.2544 116.457 6.47216 115.643 6.5684C116.5 6.05546 117.141 5.24875 117.447 4.2984C116.642 4.77628 115.761 5.11313 114.842 5.2944C114.223 4.63616 113.405 4.20023 112.514 4.0541C111.622 3.90797 110.708 4.0598 109.911 4.48607C109.115 4.91234 108.481 5.58927 108.108 6.41206C107.736 7.23485 107.644 8.15758 107.849 9.0374C106.218 8.95564 104.622 8.53172 103.165 7.79317C101.708 7.05461 100.422 6.01792 99.392 4.7504C98.8673 5.6536 98.7066 6.72282 98.9425 7.74036C99.1785 8.75791 99.7934 9.64728 100.662 10.2274C100.009 10.2085 99.3706 10.0329 98.8 9.7154V9.7674C98.8004 10.7147 99.1284 11.6327 99.7284 12.3658C100.328 13.0988 101.163 13.6018 102.092 13.7894C101.488 13.9541 100.854 13.9781 100.239 13.8594C100.501 14.6749 101.012 15.388 101.699 15.899C102.387 16.41 103.217 16.6934 104.073 16.7094C103.222 17.378 102.248 17.8722 101.206 18.1639C100.164 18.4556 99.0743 18.539 98 18.4094C99.8766 19.6137 102.06 20.2525 104.29 20.2494" fill="#9CA3AF"/>
<path fill-rule="evenodd" clip-rule="evenodd" d="M156 2C150.477 2 146 6.484 146 12.017C146 16.442 148.865 20.197 152.839 21.521C153.339 21.613 153.521 21.304 153.521 21.038C153.521 20.801 153.513 20.17 153.508 19.335C150.726 19.94 150.139 17.992 150.139 17.992C149.685 16.834 149.029 16.526 149.029 16.526C148.121 15.906 149.098 15.918 149.098 15.918C150.101 15.988 150.629 16.95 150.629 16.95C151.521 18.48 152.97 18.038 153.539 17.782C153.631 17.135 153.889 16.694 154.175 16.444C151.955 16.191 149.62 15.331 149.62 11.493C149.62 10.4 150.01 9.505 150.649 8.805C150.546 8.552 150.203 7.533 150.747 6.155C150.747 6.155 151.587 5.885 153.497 7.181C154.313 6.95851 155.154 6.84519 156 6.844C156.85 6.848 157.705 6.959 158.504 7.181C160.413 5.885 161.251 6.154 161.251 6.154C161.797 7.533 161.453 8.552 161.351 8.805C161.991 9.505 162.379 10.4 162.379 11.493C162.379 15.341 160.04 16.188 157.813 16.436C158.172 16.745 158.491 17.356 158.491 18.291C158.491 19.629 158.479 20.71 158.479 21.038C158.479 21.306 158.659 21.618 159.167 21.52C161.158 20.8521 162.889 19.5753 164.115 17.87C165.342 16.1648 166.001 14.1173 166 12.017C166 6.484 161.522 2 156 2Z" fill="#9CA3AF"/>
<path fill-rule="evenodd" clip-rule="evenodd" d="M204 2C198.48 2 194 6.48 194 12C194 17.52 198.48 22 204 22C209.51 22 214 17.52 214 12C214 6.48 209.51 2 204 2ZM210.605 6.61C211.836 8.10931 212.517 9.98437 212.535 11.924C212.254 11.87 209.434 11.295 206.592 11.653C206.527 11.512 206.472 11.36 206.408 11.208C206.231 10.791 206.043 10.3789 205.844 9.972C208.989 8.692 210.421 6.848 210.605 6.61ZM204 3.475C206.17 3.475 208.154 4.288 209.662 5.623C209.51 5.839 208.219 7.564 205.182 8.703C203.783 6.133 202.232 4.028 201.993 3.703C202.651 3.54922 203.324 3.4727 204 3.475ZM200.367 4.278C201.511 5.86431 202.569 7.51175 203.534 9.213C199.542 10.276 196.017 10.253 195.638 10.253C195.913 8.96013 196.483 7.74822 197.303 6.71179C198.123 5.67537 199.172 4.84245 200.367 4.278ZM195.453 12.01V11.75C195.823 11.76 199.965 11.815 204.228 10.535C204.478 11.012 204.705 11.5 204.922 11.988C204.813 12.021 204.694 12.053 204.586 12.086C200.182 13.506 197.839 17.389 197.644 17.715C196.234 16.1495 195.453 14.117 195.453 12.01ZM204 20.547C202.101 20.5502 200.257 19.9164 198.761 18.747C198.913 18.432 200.649 15.091 205.464 13.41C205.486 13.4 205.497 13.4 205.518 13.388C206.33 15.4834 206.941 17.6516 207.341 19.863C206.286 20.317 205.149 20.5498 204 20.547ZM208.761 19.082C208.675 18.562 208.219 16.067 207.102 12.998C209.781 12.575 212.124 13.269 212.416 13.367C212.234 14.5201 211.815 15.623 211.186 16.6065C210.557 17.59 209.731 18.4328 208.761 19.082Z" fill="#9CA3AF"/>
</svg>
