<svg width="75" height="24" viewBox="0 0 75 24" fill="none" xmlns="http://www.w3.org/2000/svg">
<rect width="75" height="24" rx="12" fill="#FEE2E2"/>
<circle cx="12" cy="12" r="3" fill="#F87171"/>
<path d="M23.5688 17H25.105V12.5604H29.4303V11.2429H25.105V8.14062H29.8827V6.81818H23.5688V17ZM33.8476 17.169C35.1104 17.169 35.8213 16.5277 36.1047 15.956H36.1643V17H37.616V11.929C37.616 9.70668 35.866 9.2642 34.653 9.2642C33.2709 9.2642 31.9981 9.82102 31.501 11.2131L32.898 11.5312C33.1167 10.9893 33.6736 10.4673 34.6729 10.4673C35.6324 10.4673 36.1246 10.9695 36.1246 11.8345V11.8693C36.1246 12.4112 35.5677 12.4013 34.1956 12.5604C32.7488 12.7294 31.2673 13.1072 31.2673 14.8423C31.2673 16.3438 32.3959 17.169 33.8476 17.169ZM34.1707 15.9759C33.3305 15.9759 32.724 15.598 32.724 14.8622C32.724 14.0668 33.43 13.7834 34.29 13.669C34.7723 13.6044 35.9157 13.4751 36.1295 13.2614V14.2457C36.1295 15.1506 35.4086 15.9759 34.1707 15.9759ZM39.596 17H41.0825V9.36364H39.596V17ZM40.3467 8.18537C40.8588 8.18537 41.2863 7.78764 41.2863 7.30043C41.2863 6.81321 40.8588 6.41051 40.3467 6.41051C39.8296 6.41051 39.407 6.81321 39.407 7.30043C39.407 7.78764 39.8296 8.18537 40.3467 8.18537ZM44.5688 6.81818H43.0823V17H44.5688V6.81818ZM49.8598 17.1541C51.5253 17.1541 52.7036 16.3338 53.0416 15.0909L51.6347 14.8374C51.3662 15.5582 50.7199 15.9261 49.8747 15.9261C48.602 15.9261 47.7469 15.1009 47.7071 13.6293H53.1361V13.1023C53.1361 10.343 51.4855 9.2642 49.7554 9.2642C47.6276 9.2642 46.2256 10.8849 46.2256 13.2315C46.2256 15.603 47.6077 17.1541 49.8598 17.1541ZM47.7121 12.5156C47.7718 11.4318 48.5573 10.4922 49.7654 10.4922C50.9188 10.4922 51.6744 11.3473 51.6794 12.5156H47.7121ZM57.6441 17.1491C59.0361 17.1491 59.583 16.299 59.8515 15.8118H59.9758V17H61.4275V6.81818H59.941V10.6016H59.8515C59.583 10.1293 59.0759 9.2642 57.654 9.2642C55.8096 9.2642 54.4523 10.7209 54.4523 13.1967C54.4523 15.6676 55.7897 17.1491 57.6441 17.1491ZM57.9722 15.8814C56.6448 15.8814 55.9537 14.7131 55.9537 13.1818C55.9537 11.6655 56.6299 10.527 57.9722 10.527C59.2698 10.527 59.9658 11.5859 59.9658 13.1818C59.9658 14.7876 59.2549 15.8814 57.9722 15.8814Z" fill="#991B1B"/>
</svg>
