<svg width="109" height="24" viewBox="0 0 109 24" fill="none" xmlns="http://www.w3.org/2000/svg">
<path d="M0 12C0 5.37258 5.37258 0 12 0H97C103.627 0 109 5.37258 109 12C109 18.6274 103.627 24 97 24H12C5.37258 24 0 18.6274 0 12Z" fill="#FEF3C7"/>
<circle cx="12" cy="12" r="3" fill="#FBBF24"/>
<path d="M23.5405 17H25.0767V13.4205H27.1648C29.5263 13.4205 30.6946 11.9936 30.6946 10.1143C30.6946 8.24006 29.5362 6.81818 27.1697 6.81818H23.5405V17ZM25.0767 12.1179V8.13565H27.0057C28.527 8.13565 29.1484 8.96094 29.1484 10.1143C29.1484 11.2678 28.527 12.1179 27.0256 12.1179H25.0767ZM32.3762 17H33.8627V12.3366C33.8627 11.3374 34.6333 10.6165 35.6873 10.6165C35.9956 10.6165 36.3436 10.6712 36.4629 10.706V9.28409C36.3137 9.2642 36.0204 9.24929 35.8315 9.24929C34.9366 9.24929 34.171 9.75639 33.8926 10.5767H33.813V9.36364H32.3762V17ZM40.6925 17.1541C42.8452 17.1541 44.2521 15.5781 44.2521 13.2166C44.2521 10.8402 42.8452 9.2642 40.6925 9.2642C38.5398 9.2642 37.1328 10.8402 37.1328 13.2166C37.1328 15.5781 38.5398 17.1541 40.6925 17.1541ZM40.6974 15.9062C39.2905 15.9062 38.6342 14.6783 38.6342 13.2116C38.6342 11.75 39.2905 10.5071 40.6974 10.5071C42.0945 10.5071 42.7507 11.75 42.7507 13.2116C42.7507 14.6783 42.0945 15.9062 40.6974 15.9062ZM49.128 17.1541C50.9327 17.1541 52.101 16.0703 52.2651 14.5838H50.8184C50.6294 15.4091 49.9881 15.8963 49.138 15.8963C47.8801 15.8963 47.0698 14.8473 47.0698 13.1818C47.0698 11.5462 47.8951 10.517 49.138 10.517C50.0826 10.517 50.6593 11.1136 50.8184 11.8295H52.2651C52.106 10.2884 50.8482 9.2642 49.1131 9.2642C46.9604 9.2642 45.5684 10.8849 45.5684 13.2166C45.5684 15.5185 46.9107 17.1541 49.128 17.1541ZM57.146 17.1541C58.8114 17.1541 59.9897 16.3338 60.3278 15.0909L58.9208 14.8374C58.6523 15.5582 58.006 15.9261 57.1609 15.9261C55.8881 15.9261 55.033 15.1009 54.9933 13.6293H60.4222V13.1023C60.4222 10.343 58.7717 9.2642 57.0415 9.2642C54.9137 9.2642 53.5117 10.8849 53.5117 13.2315C53.5117 15.603 54.8938 17.1541 57.146 17.1541ZM54.9982 12.5156C55.0579 11.4318 55.8434 10.4922 57.0515 10.4922C58.2049 10.4922 58.9606 11.3473 58.9656 12.5156H54.9982ZM67.7939 11.228C67.4856 10.0398 66.5559 9.2642 64.9054 9.2642C63.1802 9.2642 61.9572 10.174 61.9572 11.5263C61.9572 12.6101 62.6135 13.331 64.0453 13.6491L65.3379 13.9325C66.0737 14.0966 66.4167 14.4247 66.4167 14.902C66.4167 15.4936 65.7853 15.956 64.8109 15.956C63.921 15.956 63.3493 15.5732 63.1703 14.8224L61.7335 15.0412C61.9821 16.3935 63.1056 17.1541 64.8208 17.1541C66.6653 17.1541 67.943 16.1747 67.943 14.7926C67.943 13.7138 67.2569 13.0476 65.8549 12.7244L64.6419 12.446C63.8017 12.2472 63.4387 11.9638 63.4437 11.4467C63.4387 10.8601 64.0751 10.4425 64.9203 10.4425C65.845 10.4425 66.2725 10.9545 66.4466 11.4666L67.7939 11.228ZM75.2997 11.228C74.9915 10.0398 74.0618 9.2642 72.4112 9.2642C70.6861 9.2642 69.4631 10.174 69.4631 11.5263C69.4631 12.6101 70.1193 13.331 71.5511 13.6491L72.8438 13.9325C73.5795 14.0966 73.9226 14.4247 73.9226 14.902C73.9226 15.4936 73.2912 15.956 72.3168 15.956C71.4268 15.956 70.8551 15.5732 70.6761 14.8224L69.2393 15.0412C69.4879 16.3935 70.6115 17.1541 72.3267 17.1541C74.1712 17.1541 75.4489 16.1747 75.4489 14.7926C75.4489 13.7138 74.7628 13.0476 73.3608 12.7244L72.1477 12.446C71.3075 12.2472 70.9446 11.9638 70.9496 11.4467C70.9446 10.8601 71.581 10.4425 72.4261 10.4425C73.3509 10.4425 73.7784 10.9545 73.9524 11.4666L75.2997 11.228ZM77.0833 17H78.5698V9.36364H77.0833V17ZM77.834 8.18537C78.3461 8.18537 78.7736 7.78764 78.7736 7.30043C78.7736 6.81321 78.3461 6.41051 77.834 6.41051C77.3169 6.41051 76.8944 6.81321 76.8944 7.30043C76.8944 7.78764 77.3169 8.18537 77.834 8.18537ZM82.0561 12.4659C82.0561 11.2479 82.8018 10.5518 83.8359 10.5518C84.8452 10.5518 85.4567 11.2131 85.4567 12.3217V17H86.9432V12.1428C86.9432 10.2536 85.9041 9.2642 84.343 9.2642C83.1946 9.2642 82.4439 9.79616 82.0909 10.6065H81.9964V9.36364H80.5696V17H82.0561V12.4659ZM92.1385 20.0227C94.0824 20.0227 95.5838 19.1328 95.5838 17.169V9.36364H94.1271V10.6016H94.0178C93.7543 10.1293 93.2273 9.2642 91.8054 9.2642C89.9609 9.2642 88.6037 10.7209 88.6037 13.152C88.6037 15.5881 89.9908 16.8857 91.7955 16.8857C93.1974 16.8857 93.7393 16.0952 94.0078 15.608H94.1023V17.1094C94.1023 18.3075 93.282 18.8246 92.1534 18.8246C90.9155 18.8246 90.4332 18.2031 90.1697 17.7656L88.892 18.2926C89.2947 19.2273 90.3139 20.0227 92.1385 20.0227ZM92.1236 15.6527C90.7962 15.6527 90.1051 14.6335 90.1051 13.1321C90.1051 11.6655 90.7812 10.527 92.1236 10.527C93.4212 10.527 94.1172 11.5859 94.1172 13.1321C94.1172 14.7081 93.4062 15.6527 92.1236 15.6527Z" fill="#92400E"/>
</svg>
