<svg width="91" height="24" viewBox="0 0 91 24" fill="none" xmlns="http://www.w3.org/2000/svg">
<path d="M0 12C0 5.37258 5.37258 0 12 0H79C85.6274 0 91 5.37258 91 12C91 18.6274 85.6274 24 79 24H12C5.37258 24 0 18.6274 0 12Z" fill="#D1FAE5"/>
<circle cx="12" cy="12" r="3" fill="#34D399"/>
<path d="M28.9463 9.4929H30.4278C30.3831 7.86222 28.9413 6.67898 26.8731 6.67898C24.8298 6.67898 23.2638 7.8473 23.2638 9.60227C23.2638 11.0192 24.278 11.8494 25.9136 12.2919L27.1167 12.62C28.2055 12.9084 29.0457 13.2663 29.0457 14.1712C29.0457 15.1655 28.0961 15.8217 26.7886 15.8217C25.6054 15.8217 24.621 15.2947 24.5315 14.1861H22.9903C23.0898 16.0305 24.5166 17.169 26.7986 17.169C29.1899 17.169 30.567 15.9112 30.567 14.1861C30.567 12.3516 28.9314 11.6406 27.6388 11.3224L26.6444 11.0639C25.849 10.8601 24.79 10.4872 24.795 9.51278C24.795 8.64773 25.5855 8.00639 26.8383 8.00639C28.0067 8.00639 28.8369 8.55327 28.9463 9.4929ZM37.1208 13.8331C37.1258 15.1307 36.1613 15.7472 35.3261 15.7472C34.4063 15.7472 33.77 15.081 33.77 14.0419V9.36364H32.2835V14.2209C32.2835 16.1151 33.3225 17.0994 34.7892 17.0994C35.9376 17.0994 36.7181 16.4929 37.0711 15.6776H37.1507V17H38.6123V9.36364H37.1208V13.8331ZM43.8263 17.1541C45.6309 17.1541 46.7993 16.0703 46.9633 14.5838H45.5166C45.3277 15.4091 44.6863 15.8963 43.8362 15.8963C42.5784 15.8963 41.768 14.8473 41.768 13.1818C41.768 11.5462 42.5933 10.517 43.8362 10.517C44.7808 10.517 45.3575 11.1136 45.5166 11.8295H46.9633C46.8042 10.2884 45.5464 9.2642 43.8113 9.2642C41.6586 9.2642 40.2666 10.8849 40.2666 13.2166C40.2666 15.5185 41.6089 17.1541 43.8263 17.1541ZM51.7696 17.1541C53.5743 17.1541 54.7426 16.0703 54.9067 14.5838H53.46C53.271 15.4091 52.6297 15.8963 51.7796 15.8963C50.5218 15.8963 49.7114 14.8473 49.7114 13.1818C49.7114 11.5462 50.5367 10.517 51.7796 10.517C52.7242 10.517 53.3009 11.1136 53.46 11.8295H54.9067C54.7476 10.2884 53.4898 9.2642 51.7547 9.2642C49.602 9.2642 48.21 10.8849 48.21 13.2166C48.21 15.5185 49.5523 17.1541 51.7696 17.1541ZM59.7876 17.1541C61.453 17.1541 62.6313 16.3338 62.9694 15.0909L61.5624 14.8374C61.2939 15.5582 60.6476 15.9261 59.8025 15.9261C58.5297 15.9261 57.6746 15.1009 57.6349 13.6293H63.0638V13.1023C63.0638 10.343 61.4133 9.2642 59.6831 9.2642C57.5553 9.2642 56.1533 10.8849 56.1533 13.2315C56.1533 15.603 57.5354 17.1541 59.7876 17.1541ZM57.6398 12.5156C57.6995 11.4318 58.485 10.4922 59.6931 10.4922C60.8465 10.4922 61.6022 11.3473 61.6072 12.5156H57.6398ZM70.4355 11.228C70.1272 10.0398 69.1975 9.2642 67.547 9.2642C65.8218 9.2642 64.5988 10.174 64.5988 11.5263C64.5988 12.6101 65.2551 13.331 66.6869 13.6491L67.9795 13.9325C68.7153 14.0966 69.0583 14.4247 69.0583 14.902C69.0583 15.4936 68.4269 15.956 67.4525 15.956C66.5626 15.956 65.9909 15.5732 65.8119 14.8224L64.3751 15.0412C64.6237 16.3935 65.7472 17.1541 67.4624 17.1541C69.3069 17.1541 70.5846 16.1747 70.5846 14.7926C70.5846 13.7138 69.8985 13.0476 68.4965 12.7244L67.2835 12.446C66.4433 12.2472 66.0803 11.9638 66.0853 11.4467C66.0803 10.8601 66.7167 10.4425 67.5619 10.4425C68.4866 10.4425 68.9142 10.9545 69.0882 11.4666L70.4355 11.228ZM77.9413 11.228C77.6331 10.0398 76.7034 9.2642 75.0528 9.2642C73.3277 9.2642 72.1047 10.174 72.1047 11.5263C72.1047 12.6101 72.7609 13.331 74.1927 13.6491L75.4854 13.9325C76.2211 14.0966 76.5642 14.4247 76.5642 14.902C76.5642 15.4936 75.9328 15.956 74.9584 15.956C74.0684 15.956 73.4967 15.5732 73.3177 14.8224L71.8809 15.0412C72.1295 16.3935 73.2531 17.1541 74.9683 17.1541C76.8128 17.1541 78.0905 16.1747 78.0905 14.7926C78.0905 13.7138 77.4044 13.0476 76.0024 12.7244L74.7893 12.446C73.9491 12.2472 73.5862 11.9638 73.5912 11.4467C73.5862 10.8601 74.2226 10.4425 75.0677 10.4425C75.9925 10.4425 76.42 10.9545 76.594 11.4666L77.9413 11.228Z" fill="#065F46"/>
</svg>
